G04 Layer_Color=20142*
%FSLAX25Y25*%
%MOIN*%
G70*
G01*
G75*
%ADD45R,0.07874X0.07874*%
%ADD46R,0.08661X0.06693*%
%ADD47R,0.01969X0.05709*%
%ADD48R,0.07480X0.07874*%
G04:AMPARAMS|DCode=49|XSize=38.94mil|YSize=38.94mil|CornerRadius=6.34mil|HoleSize=0mil|Usage=FLASHONLY|Rotation=180.000|XOffset=0mil|YOffset=0mil|HoleType=Round|Shape=RoundedRectangle|*
%AMROUNDEDRECTD49*
21,1,0.03894,0.02625,0,0,180.0*
21,1,0.02625,0.03894,0,0,180.0*
1,1,0.01269,-0.01313,0.01313*
1,1,0.01269,0.01313,0.01313*
1,1,0.01269,0.01313,-0.01313*
1,1,0.01269,-0.01313,-0.01313*
%
%ADD49ROUNDEDRECTD49*%
%ADD50R,0.02362X0.05512*%
%ADD51R,0.04528X0.04331*%
%ADD52R,0.04331X0.04528*%
%ADD53R,0.04724X0.07087*%
%ADD54R,0.03894X0.03594*%
%ADD55R,0.03594X0.03894*%
G04:AMPARAMS|DCode=56|XSize=15.75mil|YSize=74.8mil|CornerRadius=0mil|HoleSize=0mil|Usage=FLASHONLY|Rotation=135.000|XOffset=0mil|YOffset=0mil|HoleType=Round|Shape=Round|*
%AMOVALD56*
21,1,0.05906,0.01575,0.00000,0.00000,225.0*
1,1,0.01575,0.02088,0.02088*
1,1,0.01575,-0.02088,-0.02088*
%
%ADD56OVALD56*%

G04:AMPARAMS|DCode=57|XSize=15.75mil|YSize=74.8mil|CornerRadius=0mil|HoleSize=0mil|Usage=FLASHONLY|Rotation=45.000|XOffset=0mil|YOffset=0mil|HoleType=Round|Shape=Round|*
%AMOVALD57*
21,1,0.05906,0.01575,0.00000,0.00000,135.0*
1,1,0.01575,0.02088,-0.02088*
1,1,0.01575,-0.02088,0.02088*
%
%ADD57OVALD57*%

%ADD58C,0.04331*%
%ADD59R,0.06299X0.27953*%
%ADD60R,0.04331X0.27953*%
%ADD61R,0.03976X0.05197*%
%ADD62R,0.03386X0.09843*%
G04:AMPARAMS|DCode=63|XSize=38.94mil|YSize=38.94mil|CornerRadius=6.34mil|HoleSize=0mil|Usage=FLASHONLY|Rotation=90.000|XOffset=0mil|YOffset=0mil|HoleType=Round|Shape=RoundedRectangle|*
%AMROUNDEDRECTD63*
21,1,0.03894,0.02625,0,0,90.0*
21,1,0.02625,0.03894,0,0,90.0*
1,1,0.01269,0.01313,0.01313*
1,1,0.01269,0.01313,-0.01313*
1,1,0.01269,-0.01313,-0.01313*
1,1,0.01269,-0.01313,0.01313*
%
%ADD63ROUNDEDRECTD63*%
G04:AMPARAMS|DCode=64|XSize=78.74mil|YSize=19.69mil|CornerRadius=0mil|HoleSize=0mil|Usage=FLASHONLY|Rotation=45.000|XOffset=0mil|YOffset=0mil|HoleType=Round|Shape=Rectangle|*
%AMROTATEDRECTD64*
4,1,4,-0.02088,-0.03480,-0.03480,-0.02088,0.02088,0.03480,0.03480,0.02088,-0.02088,-0.03480,0.0*
%
%ADD64ROTATEDRECTD64*%

%ADD65R,0.03937X0.03543*%
%ADD66C,0.70394*%
%ADD67R,0.05394X0.20394*%
%ADD68C,0.21260*%
%ADD69C,0.00394*%
D45*
X376378Y472638D02*
D03*
X366929D02*
D03*
D46*
X383858Y462598D02*
D03*
X359449D02*
D03*
D47*
X376772Y462106D02*
D03*
X374213D02*
D03*
X371654D02*
D03*
X369094D02*
D03*
X366535D02*
D03*
D48*
X386614Y472638D02*
D03*
X356693D02*
D03*
D49*
X333221Y423228D02*
D03*
X339220D02*
D03*
X305661Y383858D02*
D03*
X311661D02*
D03*
X337252Y301181D02*
D03*
X331252D02*
D03*
X325441D02*
D03*
X319441D02*
D03*
X252606Y330709D02*
D03*
X246606D02*
D03*
X267173Y311811D02*
D03*
X261173D02*
D03*
D50*
X245472Y307087D02*
D03*
X249213D02*
D03*
X252953D02*
D03*
Y316535D02*
D03*
X245472D02*
D03*
D51*
X248622Y299213D02*
D03*
X242717D02*
D03*
X333268Y431102D02*
D03*
X339173D02*
D03*
X343110Y312992D02*
D03*
X337205D02*
D03*
X325394D02*
D03*
X331299D02*
D03*
X305709Y370866D02*
D03*
X311614D02*
D03*
X350984Y305118D02*
D03*
X356890D02*
D03*
X337205Y322047D02*
D03*
X331299D02*
D03*
X307677Y334646D02*
D03*
X313583D02*
D03*
D52*
X365748Y416339D02*
D03*
Y410433D02*
D03*
X404331Y347047D02*
D03*
Y352953D02*
D03*
D53*
X254724Y279528D02*
D03*
X244488D02*
D03*
X386221Y444882D02*
D03*
X396457D02*
D03*
D54*
X246606Y324803D02*
D03*
X252606D02*
D03*
X300543Y345669D02*
D03*
X306543D02*
D03*
X331347Y307087D02*
D03*
X325346D02*
D03*
X337158D02*
D03*
X343158D02*
D03*
D55*
X371654Y410386D02*
D03*
Y416386D02*
D03*
X404331Y339220D02*
D03*
Y333221D02*
D03*
D56*
X322121Y359858D02*
D03*
X323513Y358466D02*
D03*
X324905Y357074D02*
D03*
X326297Y355682D02*
D03*
X327689Y354290D02*
D03*
X329081Y352899D02*
D03*
X330472Y351507D02*
D03*
X331865Y350115D02*
D03*
X333256Y348723D02*
D03*
X334648Y347331D02*
D03*
X336040Y345939D02*
D03*
X337432Y344547D02*
D03*
X338824Y343155D02*
D03*
X340216Y341763D02*
D03*
X341608Y340371D02*
D03*
X343000Y338979D02*
D03*
X344392Y337587D02*
D03*
X345784Y336195D02*
D03*
X347176Y334803D02*
D03*
X348568Y333411D02*
D03*
X349960Y332019D02*
D03*
X351352Y330627D02*
D03*
X352744Y329235D02*
D03*
X354135Y327843D02*
D03*
X355527Y326452D02*
D03*
X397564Y368488D02*
D03*
X396172Y369880D02*
D03*
X394780Y371272D02*
D03*
X393388Y372664D02*
D03*
X391996Y374056D02*
D03*
X390604Y375448D02*
D03*
X389212Y376840D02*
D03*
X387821Y378232D02*
D03*
X386429Y379624D02*
D03*
X385037Y381016D02*
D03*
X383645Y382408D02*
D03*
X382253Y383800D02*
D03*
X380861Y385192D02*
D03*
X379469Y386583D02*
D03*
X378077Y387975D02*
D03*
X376685Y389367D02*
D03*
X375293Y390759D02*
D03*
X373901Y392151D02*
D03*
X372509Y393543D02*
D03*
X371117Y394935D02*
D03*
X369725Y396327D02*
D03*
X368333Y397719D02*
D03*
X366941Y399111D02*
D03*
X365549Y400503D02*
D03*
X364158Y401895D02*
D03*
D57*
Y326452D02*
D03*
X365549Y327843D02*
D03*
X366941Y329236D02*
D03*
X368333Y330627D02*
D03*
X369725Y332019D02*
D03*
X371117Y333411D02*
D03*
X372509Y334803D02*
D03*
X373901Y336195D02*
D03*
X375293Y337587D02*
D03*
X376685Y338979D02*
D03*
X378077Y340371D02*
D03*
X379469Y341763D02*
D03*
X380861Y343155D02*
D03*
X382253Y344547D02*
D03*
X383645Y345939D02*
D03*
X385037Y347331D02*
D03*
X386429Y348723D02*
D03*
X387821Y350115D02*
D03*
X389212Y351507D02*
D03*
X390604Y352899D02*
D03*
X391996Y354290D02*
D03*
X393388Y355682D02*
D03*
X394780Y357074D02*
D03*
X396172Y358466D02*
D03*
X397564Y359858D02*
D03*
X355527Y401895D02*
D03*
X354135Y400503D02*
D03*
X352744Y399111D02*
D03*
X351352Y397719D02*
D03*
X349960Y396327D02*
D03*
X348568Y394935D02*
D03*
X347176Y393543D02*
D03*
X345784Y392151D02*
D03*
X344392Y390759D02*
D03*
X343000Y389367D02*
D03*
X341608Y387975D02*
D03*
X340216Y386583D02*
D03*
X338824Y385191D02*
D03*
X337432Y383800D02*
D03*
X336040Y382408D02*
D03*
X334648Y381016D02*
D03*
X333256Y379624D02*
D03*
X331865Y378232D02*
D03*
X330472Y376840D02*
D03*
X329081Y375448D02*
D03*
X327689Y374056D02*
D03*
X326297Y372664D02*
D03*
X324905Y371272D02*
D03*
X323513Y369880D02*
D03*
X322121Y368488D02*
D03*
D58*
X277165Y346457D02*
D03*
Y352362D02*
D03*
Y370079D02*
D03*
Y364173D02*
D03*
Y358268D02*
D03*
X338189Y403543D02*
D03*
X332283D02*
D03*
X326378D02*
D03*
X322441Y395669D02*
D03*
X316535D02*
D03*
X310630D02*
D03*
X304724D02*
D03*
X288976Y383858D02*
D03*
Y377953D02*
D03*
X294882Y389764D02*
D03*
X288976D02*
D03*
X346063Y471260D02*
D03*
X283071Y334646D02*
D03*
X277165D02*
D03*
X288976D02*
D03*
X357874Y316929D02*
D03*
X351969Y311024D02*
D03*
X357874D02*
D03*
Y273622D02*
D03*
X346063D02*
D03*
X351969D02*
D03*
X340158D02*
D03*
X361811Y277559D02*
D03*
X365748Y281496D02*
D03*
X381496Y297244D02*
D03*
X369685Y285433D02*
D03*
X373622Y289370D02*
D03*
X403150Y383858D02*
D03*
Y389764D02*
D03*
Y395669D02*
D03*
Y407480D02*
D03*
X397244D02*
D03*
X391339D02*
D03*
X403150Y401575D02*
D03*
X404331Y314567D02*
D03*
Y322441D02*
D03*
X414961Y372047D02*
D03*
Y377953D02*
D03*
Y383858D02*
D03*
Y389764D02*
D03*
X363779Y261811D02*
D03*
X328346D02*
D03*
X304724D02*
D03*
X369666D02*
D03*
X351969D02*
D03*
X316535D02*
D03*
X298819D02*
D03*
X257480D02*
D03*
X405118D02*
D03*
X412008D02*
D03*
X381496D02*
D03*
X340158D02*
D03*
X287008D02*
D03*
X275197D02*
D03*
X263386D02*
D03*
X245669D02*
D03*
X393307D02*
D03*
X387402D02*
D03*
X357874D02*
D03*
X334252D02*
D03*
X310630D02*
D03*
X281102D02*
D03*
X399213D02*
D03*
X239764D02*
D03*
X375590D02*
D03*
X346063D02*
D03*
X322441D02*
D03*
X292913D02*
D03*
X269291D02*
D03*
X226969D02*
D03*
X251575D02*
D03*
X233858D02*
D03*
X326378Y437795D02*
D03*
X336221D02*
D03*
X324409Y471260D02*
D03*
X330315D02*
D03*
X336221D02*
D03*
D59*
X412008Y240158D02*
D03*
X226969D02*
D03*
D60*
X233858D02*
D03*
X239764D02*
D03*
X245669D02*
D03*
X251575D02*
D03*
X257480D02*
D03*
X263386D02*
D03*
X269291D02*
D03*
X275197D02*
D03*
X281102D02*
D03*
X334252D02*
D03*
X328346D02*
D03*
X322441D02*
D03*
X316535D02*
D03*
X310630D02*
D03*
X304724D02*
D03*
X298819D02*
D03*
X292913D02*
D03*
X287008D02*
D03*
X387402D02*
D03*
X381496D02*
D03*
X375590D02*
D03*
X369685D02*
D03*
X363779D02*
D03*
X357874D02*
D03*
X351969D02*
D03*
X346063D02*
D03*
X340158D02*
D03*
X405118D02*
D03*
X399213D02*
D03*
X393307D02*
D03*
D61*
X243169Y289370D02*
D03*
X256043D02*
D03*
X259980Y338583D02*
D03*
X247106D02*
D03*
X384902Y435039D02*
D03*
X397776D02*
D03*
X259980Y350394D02*
D03*
X247106D02*
D03*
D62*
X326220Y463189D02*
D03*
Y447835D02*
D03*
X331221Y463189D02*
D03*
Y447835D02*
D03*
X346220Y463189D02*
D03*
Y447835D02*
D03*
X341220Y463189D02*
D03*
Y447835D02*
D03*
X336221D02*
D03*
Y463189D02*
D03*
D63*
X273228Y300150D02*
D03*
Y306150D02*
D03*
X267323Y300150D02*
D03*
Y306150D02*
D03*
X261024Y300150D02*
D03*
Y306150D02*
D03*
X405512Y420228D02*
D03*
Y426228D02*
D03*
X399213Y420228D02*
D03*
Y426228D02*
D03*
D64*
X301969Y320079D02*
D03*
X305309Y316738D02*
D03*
X298628Y323419D02*
D03*
D65*
X383465Y423228D02*
D03*
X391339Y426968D02*
D03*
Y419488D02*
D03*
D66*
X275197Y435039D02*
D03*
D67*
X318445D02*
D03*
X231949D02*
D03*
D68*
X220079Y464567D02*
D03*
X418898Y448819D02*
D03*
X220079Y281496D02*
D03*
X418898D02*
D03*
D69*
X220079Y464567D02*
D03*
X418898Y448819D02*
D03*
X220079Y281496D02*
D03*
X418898D02*
D03*
M02*
