M48
;Layer_Color=6321
;FILE_FORMAT=2:5
INCH,LZ
;TYPE=PLATED
T1F00S00C0.01181
;TYPE=NON_PLATED
T2F00S00C0.11811
%
T01
X0316535Y0261811
X0322441
X0328346
X0334252
X0340158
X0346063
X0351969Y0267717
X0350787Y0300787
X0357087
X0367717Y0311024
X0318504Y0312205
X0313779
X0318504Y0307087
X0314567Y0301181
X042874
Y0269685
X0412008Y0261811
X0399213Y0267717
X031063Y0261811
X0304724
X0298819
X0292913
X0287008
X0281102
X0275197
X0269291
X0263386
X025748
Y0266929
X0251575Y0266142
X0239764Y0261811
X0242717Y0295276
X0261024
X0284646Y0296063
X0285039Y0307087
X0301575Y0312205
X0302756Y0295276
X0210236Y0301181
Y0269685
Y0320866
Y0340551
Y0360236
Y0379921
Y0399606
Y0419291
Y0438976
X0245669Y0435039
X0255512
X0265354
Y0444882
Y0454724
X0275197
X0285039
Y0444882
Y0435039
X0275197
Y0444882
Y0425197
Y0415354
X0265354
Y0425197
X0255512
Y0444882
X0239764Y0458661
X0275197Y0464567
X0294882Y0444882
Y0435039
Y0425197
X0285039
Y0415354
X0275197Y0405512
X0302756Y0389764
X0304724Y0366142
X0311417
X0294882Y0345669
X0300787Y0334646
X0294882Y0324803
X030748Y0322835
X031063Y032874
X025748Y0324803
X0241732Y0389764
X0304724Y0435039
X0336221Y0437795
X0342913Y0427165
X033937Y0419291
X0328346Y0423228
X0318898Y0407087
X0318504Y0383858
X0332283Y0389764
X0359842Y0393701
X0364173Y0393559
X0361811Y0379921
X0359449Y0377559
X0357087Y0375197
X0354724Y0372835
X0352362Y0370472
X035Y036811
X0347638Y0365748
X0345276Y0363386
X0359842Y0364173
X0373228Y0347638
X0370866Y0345276
X037559Y035
X0377953Y0352362
X0380315Y0354724
X0382677Y0357087
X0385039Y0359449
X0387402Y0361811
X0389764Y0364173
X0409055
X0404331Y0358268
X042874Y0360236
Y0379921
Y0399606
Y0419291
X0418898Y0423228
Y0429134
X042874Y0438976
X0381102Y0435039
X0369685
X0371654Y0423228
X0365748
X0361024Y041063
X0369291Y0405118
X0383465Y0403543
X0385827Y040748
X035
X0336221Y0456693
X0340158Y0352362
X0345304Y034685
X0348031Y0344488
X042874Y0340551
Y0320866
X0407087Y0474409
X0330315Y047126
X0324409
T02
X0418898Y0281496
X0220079
Y0464567
X0418898Y0448819
M30
