G04 Layer_Color=13813960*
%FSLAX25Y25*%
%MOIN*%
G70*
G01*
G75*
G36*
X366542Y298748D02*
X364518D01*
X358777Y313088D01*
X360827D01*
X366542Y298748D01*
D02*
G37*
G36*
X375755D02*
X373732D01*
X367991Y313088D01*
X370041D01*
X375755Y298748D01*
D02*
G37*
G36*
X320884Y310203D02*
X321253Y310162D01*
X321595Y310108D01*
X321909Y310026D01*
X322210Y309930D01*
X322483Y309821D01*
X322729Y309711D01*
X322948Y309602D01*
X323153Y309479D01*
X323317Y309369D01*
X323467Y309260D01*
X323590Y309164D01*
X323686Y309082D01*
X323755Y309028D01*
X323796Y308987D01*
X323809Y308973D01*
X324014Y308727D01*
X324206Y308467D01*
X324356Y308208D01*
X324493Y307920D01*
X324616Y307633D01*
X324711Y307346D01*
X324780Y307073D01*
X324848Y306800D01*
X324903Y306553D01*
X324930Y306307D01*
X324957Y306102D01*
X324985Y305911D01*
Y305761D01*
X324998Y305651D01*
Y305583D01*
Y305556D01*
X324985Y305159D01*
X324944Y304776D01*
X324889Y304435D01*
X324821Y304093D01*
X324725Y303792D01*
X324629Y303519D01*
X324520Y303259D01*
X324411Y303027D01*
X324301Y302821D01*
X324192Y302644D01*
X324096Y302493D01*
X324001Y302370D01*
X323932Y302261D01*
X323878Y302193D01*
X323836Y302152D01*
X323823Y302138D01*
X323590Y301919D01*
X323344Y301742D01*
X323071Y301577D01*
X322798Y301441D01*
X322524Y301318D01*
X322251Y301222D01*
X321977Y301140D01*
X321718Y301072D01*
X321472Y301017D01*
X321239Y300990D01*
X321034Y300962D01*
X320856Y300935D01*
X320706D01*
X320597Y300921D01*
X320501D01*
X320118Y300935D01*
X319749Y300976D01*
X319407Y301031D01*
X319093Y301113D01*
X318792Y301208D01*
X318519Y301304D01*
X318273Y301413D01*
X318054Y301536D01*
X317849Y301646D01*
X317685Y301755D01*
X317535Y301851D01*
X317412Y301947D01*
X317316Y302029D01*
X317248Y302083D01*
X317207Y302124D01*
X317193Y302138D01*
X316988Y302384D01*
X316796Y302644D01*
X316646Y302917D01*
X316509Y303191D01*
X316386Y303478D01*
X316291Y303765D01*
X316209Y304038D01*
X316154Y304311D01*
X316099Y304558D01*
X316072Y304804D01*
X316045Y305009D01*
X316017Y305200D01*
Y305350D01*
X316004Y305460D01*
Y305528D01*
Y305556D01*
X316017Y305952D01*
X316058Y306335D01*
X316113Y306690D01*
X316195Y307018D01*
X316277Y307319D01*
X316373Y307592D01*
X316482Y307852D01*
X316591Y308085D01*
X316714Y308290D01*
X316810Y308467D01*
X316919Y308618D01*
X317002Y308741D01*
X317084Y308850D01*
X317138Y308918D01*
X317179Y308959D01*
X317193Y308973D01*
X317425Y309192D01*
X317671Y309383D01*
X317945Y309547D01*
X318204Y309698D01*
X318492Y309807D01*
X318765Y309916D01*
X319038Y309998D01*
X319298Y310067D01*
X319544Y310108D01*
X319763Y310149D01*
X319968Y310176D01*
X320146Y310203D01*
X320296D01*
X320405Y310217D01*
X320501D01*
X320884Y310203D01*
D02*
G37*
G36*
X381743Y330722D02*
X379241D01*
Y332773D01*
X381743D01*
Y330722D01*
D02*
G37*
G36*
X395016Y310162D02*
X395262Y310135D01*
X395495Y310080D01*
X395700Y310039D01*
X395864Y309985D01*
X396000Y309930D01*
X396082Y309903D01*
X396096Y309889D01*
X396110D01*
X396356Y309766D01*
X396629Y309602D01*
X396903Y309410D01*
X397162Y309233D01*
X397395Y309055D01*
X397491Y308973D01*
X397586Y308905D01*
X397655Y308850D01*
X397709Y308809D01*
X397737Y308782D01*
X397750Y308768D01*
Y309944D01*
X400074D01*
Y298037D01*
X397750D01*
Y301796D01*
X397504Y301673D01*
X397258Y301550D01*
X397026Y301454D01*
X396793Y301373D01*
X396370Y301236D01*
X396178Y301195D01*
X396000Y301154D01*
X395850Y301126D01*
X395700Y301099D01*
X395577Y301085D01*
X395467Y301072D01*
X395385Y301058D01*
X395276D01*
X394975Y301072D01*
X394702Y301113D01*
X394428Y301181D01*
X394182Y301263D01*
X393936Y301359D01*
X393718Y301454D01*
X393513Y301577D01*
X393335Y301701D01*
X393171Y301810D01*
X393020Y301933D01*
X392897Y302029D01*
X392788Y302138D01*
X392706Y302206D01*
X392651Y302275D01*
X392610Y302316D01*
X392597Y302329D01*
X392405Y302575D01*
X392241Y302849D01*
X392091Y303122D01*
X391968Y303396D01*
X391872Y303683D01*
X391776Y303956D01*
X391708Y304243D01*
X391653Y304503D01*
X391612Y304749D01*
X391571Y304981D01*
X391544Y305186D01*
X391530Y305364D01*
X391517Y305501D01*
Y305610D01*
Y305679D01*
Y305706D01*
X391530Y306089D01*
X391558Y306458D01*
X391599Y306800D01*
X391653Y307114D01*
X391708Y307415D01*
X391790Y307674D01*
X391858Y307920D01*
X391940Y308153D01*
X392022Y308344D01*
X392091Y308522D01*
X392173Y308659D01*
X392228Y308782D01*
X392282Y308877D01*
X392323Y308946D01*
X392351Y308987D01*
X392364Y309000D01*
X392528Y309205D01*
X392706Y309383D01*
X392897Y309547D01*
X393089Y309684D01*
X393294Y309793D01*
X393499Y309889D01*
X393690Y309971D01*
X393882Y310026D01*
X394059Y310080D01*
X394223Y310108D01*
X394374Y310135D01*
X394497Y310162D01*
X394606D01*
X394688Y310176D01*
X394757D01*
X395016Y310162D01*
D02*
G37*
G36*
X295471Y298748D02*
X293448D01*
X287707Y313088D01*
X289757D01*
X295471Y298748D01*
D02*
G37*
G36*
X248173Y309957D02*
X248419Y309916D01*
X248652Y309861D01*
X248857Y309807D01*
X249034Y309752D01*
X249157Y309698D01*
X249212Y309670D01*
X249253Y309657D01*
X249267Y309643D01*
X249280D01*
X249417Y309575D01*
X249554Y309492D01*
X249841Y309301D01*
X250128Y309082D01*
X250415Y308877D01*
X250661Y308672D01*
X250757Y308577D01*
X250852Y308508D01*
X250921Y308440D01*
X250989Y308385D01*
X251016Y308358D01*
X251030Y308344D01*
Y309944D01*
X253354D01*
Y301181D01*
X251030D01*
Y307292D01*
X250634Y307428D01*
X250237Y307524D01*
X249854Y307592D01*
X249513Y307633D01*
X249349Y307661D01*
X249212Y307674D01*
X249075D01*
X248966Y307688D01*
X248487D01*
X248241Y307674D01*
X248023Y307647D01*
X247845Y307633D01*
X247695Y307606D01*
X247585Y307579D01*
X247531Y307565D01*
X247435D01*
Y309957D01*
X247544D01*
X247640Y309971D01*
X247927D01*
X248173Y309957D01*
D02*
G37*
G36*
X262062D02*
X262308Y309916D01*
X262540Y309861D01*
X262745Y309807D01*
X262923Y309752D01*
X263046Y309698D01*
X263101Y309670D01*
X263142Y309657D01*
X263155Y309643D01*
X263169D01*
X263306Y309575D01*
X263442Y309492D01*
X263730Y309301D01*
X264017Y309082D01*
X264304Y308877D01*
X264550Y308672D01*
X264645Y308577D01*
X264741Y308508D01*
X264809Y308440D01*
X264878Y308385D01*
X264905Y308358D01*
X264919Y308344D01*
Y309944D01*
X267243D01*
Y301181D01*
X264919D01*
Y307292D01*
X264522Y307428D01*
X264126Y307524D01*
X263743Y307592D01*
X263401Y307633D01*
X263237Y307661D01*
X263101Y307674D01*
X262964D01*
X262855Y307688D01*
X262376D01*
X262130Y307674D01*
X261911Y307647D01*
X261734Y307633D01*
X261583Y307606D01*
X261474Y307579D01*
X261419Y307565D01*
X261324D01*
Y309957D01*
X261433D01*
X261529Y309971D01*
X261816D01*
X262062Y309957D01*
D02*
G37*
G36*
X299422Y301181D02*
X297098D01*
Y309944D01*
X299422D01*
Y301181D01*
D02*
G37*
G36*
X235761Y309438D02*
X236089Y309602D01*
X236376Y309738D01*
X236608Y309848D01*
X236813Y309930D01*
X236964Y309985D01*
X237073Y310026D01*
X237141Y310053D01*
X237169D01*
X237538Y310121D01*
X237716Y310149D01*
X237880Y310162D01*
X238016Y310176D01*
X238221D01*
X238522Y310162D01*
X238795Y310121D01*
X239069Y310053D01*
X239329Y309971D01*
X239561Y309875D01*
X239780Y309766D01*
X239985Y309643D01*
X240176Y309520D01*
X240340Y309397D01*
X240491Y309274D01*
X240614Y309164D01*
X240723Y309069D01*
X240805Y308987D01*
X240860Y308918D01*
X240901Y308877D01*
X240914Y308864D01*
X241106Y308618D01*
X241270Y308344D01*
X241420Y308071D01*
X241543Y307784D01*
X241639Y307510D01*
X241735Y307223D01*
X241803Y306950D01*
X241858Y306690D01*
X241898Y306444D01*
X241939Y306212D01*
X241967Y306007D01*
X241981Y305829D01*
Y305692D01*
X241994Y305583D01*
Y305515D01*
Y305487D01*
X241981Y305104D01*
X241953Y304735D01*
X241912Y304394D01*
X241858Y304079D01*
X241789Y303778D01*
X241707Y303505D01*
X241639Y303259D01*
X241543Y303040D01*
X241461Y302835D01*
X241393Y302658D01*
X241311Y302507D01*
X241242Y302384D01*
X241188Y302288D01*
X241147Y302220D01*
X241119Y302179D01*
X241106Y302165D01*
X240928Y301947D01*
X240737Y301769D01*
X240545Y301605D01*
X240354Y301468D01*
X240149Y301345D01*
X239944Y301249D01*
X239752Y301167D01*
X239561Y301099D01*
X239383Y301044D01*
X239219Y301017D01*
X239069Y300990D01*
X238946Y300962D01*
X238850D01*
X238768Y300949D01*
X238700D01*
X238454Y300962D01*
X238235Y300990D01*
X238016Y301017D01*
X237839Y301072D01*
X237688Y301113D01*
X237565Y301140D01*
X237497Y301167D01*
X237470Y301181D01*
X237360Y301236D01*
X237237Y301290D01*
X236964Y301454D01*
X236677Y301646D01*
X236403Y301837D01*
X236143Y302029D01*
X236048Y302111D01*
X235952Y302179D01*
X235870Y302247D01*
X235815Y302288D01*
X235774Y302316D01*
X235761Y302329D01*
Y301181D01*
X233437D01*
Y313088D01*
X235761D01*
Y309438D01*
D02*
G37*
G36*
X386555Y310162D02*
X386882Y310149D01*
X387183Y310108D01*
X387470Y310053D01*
X387730Y309998D01*
X387976Y309930D01*
X388209Y309848D01*
X388414Y309780D01*
X388591Y309711D01*
X388755Y309629D01*
X388892Y309561D01*
X389001Y309506D01*
X389083Y309452D01*
X389152Y309424D01*
X389193Y309397D01*
X389206Y309383D01*
X389398Y309233D01*
X389576Y309069D01*
X389726Y308891D01*
X389849Y308727D01*
X389958Y308549D01*
X390040Y308371D01*
X390122Y308208D01*
X390177Y308043D01*
X390218Y307893D01*
X390259Y307756D01*
X390273Y307633D01*
X390300Y307524D01*
Y307428D01*
X390314Y307360D01*
Y307319D01*
Y307305D01*
X390300Y307059D01*
X390273Y306840D01*
X390232Y306635D01*
X390191Y306458D01*
X390150Y306321D01*
X390109Y306212D01*
X390081Y306143D01*
X390068Y306116D01*
X389958Y305925D01*
X389835Y305761D01*
X389712Y305610D01*
X389576Y305473D01*
X389466Y305378D01*
X389370Y305296D01*
X389316Y305241D01*
X389288Y305227D01*
X389083Y305104D01*
X388851Y304995D01*
X388605Y304899D01*
X388386Y304817D01*
X388181Y304749D01*
X388017Y304708D01*
X387949Y304694D01*
X387908Y304681D01*
X387880Y304667D01*
X387867D01*
X387552Y304599D01*
X387265Y304530D01*
X387033Y304489D01*
X386828Y304448D01*
X386678Y304421D01*
X386568Y304394D01*
X386500Y304380D01*
X386472D01*
X386226Y304311D01*
X386021Y304257D01*
X385844Y304188D01*
X385707Y304134D01*
X385611Y304079D01*
X385543Y304052D01*
X385502Y304025D01*
X385488Y304011D01*
X385392Y303929D01*
X385324Y303847D01*
X385283Y303751D01*
X385242Y303655D01*
X385228Y303573D01*
X385215Y303505D01*
Y303450D01*
Y303437D01*
X385228Y303273D01*
X385283Y303122D01*
X385379Y302999D01*
X385488Y302890D01*
X385625Y302794D01*
X385762Y302712D01*
X385926Y302644D01*
X386090Y302603D01*
X386404Y302534D01*
X386555Y302507D01*
X386691Y302493D01*
X386801Y302480D01*
X386965D01*
X387293Y302493D01*
X387607Y302534D01*
X387908Y302603D01*
X388209Y302671D01*
X388496Y302767D01*
X388769Y302876D01*
X389029Y302986D01*
X389275Y303109D01*
X389493Y303232D01*
X389685Y303341D01*
X389849Y303450D01*
X389999Y303546D01*
X390122Y303628D01*
X390204Y303683D01*
X390259Y303724D01*
X390273Y303737D01*
X390355D01*
Y301591D01*
X390081Y301482D01*
X389808Y301386D01*
X389234Y301222D01*
X388673Y301113D01*
X388414Y301058D01*
X388154Y301031D01*
X387922Y301003D01*
X387703Y300990D01*
X387511Y300962D01*
X387334D01*
X387211Y300949D01*
X387019D01*
X386664Y300962D01*
X386336Y300990D01*
X386021Y301017D01*
X385734Y301072D01*
X385461Y301126D01*
X385201Y301195D01*
X384982Y301277D01*
X384777Y301345D01*
X384586Y301413D01*
X384422Y301496D01*
X384285Y301564D01*
X384176Y301619D01*
X384080Y301673D01*
X384026Y301714D01*
X383984Y301728D01*
X383971Y301742D01*
X383766Y301892D01*
X383602Y302056D01*
X383438Y302234D01*
X383315Y302411D01*
X383205Y302589D01*
X383110Y302767D01*
X383041Y302944D01*
X382973Y303109D01*
X382932Y303259D01*
X382891Y303409D01*
X382877Y303546D01*
X382850Y303655D01*
Y303751D01*
X382836Y303819D01*
Y303860D01*
Y303874D01*
X382864Y304216D01*
X382918Y304517D01*
X383000Y304776D01*
X383096Y304995D01*
X383192Y305173D01*
X383274Y305296D01*
X383328Y305378D01*
X383356Y305405D01*
X383561Y305610D01*
X383793Y305788D01*
X384039Y305938D01*
X384272Y306048D01*
X384477Y306130D01*
X384559Y306171D01*
X384641Y306198D01*
X384709Y306212D01*
X384750Y306225D01*
X384777Y306239D01*
X384791D01*
X385133Y306321D01*
X385461Y306403D01*
X385762Y306471D01*
X386035Y306526D01*
X386267Y306567D01*
X386363Y306594D01*
X386445Y306608D01*
X386513Y306622D01*
X386568D01*
X386596Y306635D01*
X386609D01*
X386855Y306704D01*
X387074Y306758D01*
X387252Y306827D01*
X387402Y306881D01*
X387511Y306936D01*
X387593Y306977D01*
X387634Y306991D01*
X387648Y307004D01*
X387744Y307100D01*
X387826Y307210D01*
X387880Y307319D01*
X387908Y307428D01*
X387935Y307524D01*
X387949Y307606D01*
Y307674D01*
Y307688D01*
X387922Y307838D01*
X387867Y307961D01*
X387798Y308085D01*
X387703Y308180D01*
X387607Y308248D01*
X387539Y308317D01*
X387484Y308344D01*
X387457Y308358D01*
X387265Y308453D01*
X387060Y308522D01*
X386855Y308563D01*
X386650Y308604D01*
X386486Y308618D01*
X386349Y308631D01*
X386226D01*
X385953Y308618D01*
X385693Y308590D01*
X385420Y308536D01*
X385160Y308467D01*
X384668Y308290D01*
X384436Y308194D01*
X384217Y308098D01*
X384012Y307989D01*
X383834Y307893D01*
X383670Y307797D01*
X383533Y307715D01*
X383424Y307647D01*
X383342Y307592D01*
X383287Y307565D01*
X383274Y307551D01*
X383219D01*
Y309602D01*
X383725Y309793D01*
X384244Y309930D01*
X384750Y310039D01*
X384982Y310080D01*
X385215Y310108D01*
X385420Y310135D01*
X385611Y310149D01*
X385789Y310162D01*
X385926D01*
X386049Y310176D01*
X386213D01*
X386555Y310162D01*
D02*
G37*
G36*
X246068Y301181D02*
X243744D01*
Y309944D01*
X246068D01*
Y301181D01*
D02*
G37*
G36*
X363821Y329847D02*
X364108Y329806D01*
X364382Y329752D01*
X364628Y329670D01*
X364874Y329588D01*
X365093Y329478D01*
X365298Y329369D01*
X365475Y329259D01*
X365653Y329150D01*
X365790Y329041D01*
X365913Y328931D01*
X366022Y328849D01*
X366104Y328767D01*
X366159Y328713D01*
X366200Y328672D01*
X366213Y328658D01*
X366391Y328426D01*
X366555Y328180D01*
X366692Y327920D01*
X366815Y327660D01*
X366911Y327387D01*
X366993Y327127D01*
X367061Y326867D01*
X367116Y326621D01*
X367170Y326375D01*
X367198Y326170D01*
X367225Y325965D01*
X367239Y325801D01*
Y325664D01*
X367252Y325555D01*
Y325500D01*
Y325473D01*
X367239Y325063D01*
X367211Y324680D01*
X367157Y324325D01*
X367102Y323997D01*
X367020Y323682D01*
X366924Y323395D01*
X366815Y323122D01*
X366692Y322876D01*
X366555Y322657D01*
X366419Y322452D01*
X366268Y322260D01*
X366104Y322083D01*
X365954Y321932D01*
X365790Y321782D01*
X365612Y321659D01*
X365448Y321550D01*
X365106Y321358D01*
X364778Y321222D01*
X364477Y321126D01*
X364204Y321058D01*
X363972Y321017D01*
X363876Y321003D01*
X363794D01*
X363726Y320989D01*
X363644D01*
X363398Y321003D01*
X363165Y321044D01*
X362933Y321098D01*
X362700Y321167D01*
X362468Y321263D01*
X362249Y321358D01*
X362044Y321468D01*
X361853Y321577D01*
X361675Y321686D01*
X361511Y321796D01*
X361374Y321891D01*
X361251Y321987D01*
X361156Y322055D01*
X361074Y322110D01*
X361033Y322151D01*
X361019Y322165D01*
Y321673D01*
Y321427D01*
X361046Y321194D01*
X361074Y320989D01*
X361115Y320798D01*
X361169Y320620D01*
X361224Y320470D01*
X361279Y320333D01*
X361333Y320224D01*
X361388Y320114D01*
X361443Y320032D01*
X361497Y319964D01*
X361552Y319909D01*
X361620Y319841D01*
X361634Y319813D01*
X361648D01*
X361771Y319731D01*
X361908Y319650D01*
X362208Y319540D01*
X362536Y319458D01*
X362864Y319390D01*
X363151Y319362D01*
X363288Y319349D01*
X363398D01*
X363493Y319335D01*
X363616D01*
X364040Y319362D01*
X364491Y319417D01*
X364929Y319499D01*
X365339Y319608D01*
X365516Y319650D01*
X365694Y319704D01*
X365844Y319745D01*
X365981Y319786D01*
X366077Y319813D01*
X366159Y319841D01*
X366213Y319868D01*
X366350D01*
Y317968D01*
X365776Y317859D01*
X365229Y317777D01*
X364710Y317722D01*
X364464Y317695D01*
X364231Y317681D01*
X364026Y317667D01*
X363849Y317654D01*
X363685D01*
X363534Y317640D01*
X363275D01*
X362837Y317654D01*
X362427Y317681D01*
X362058Y317736D01*
X361716Y317804D01*
X361402Y317886D01*
X361115Y317968D01*
X360855Y318064D01*
X360623Y318160D01*
X360431Y318255D01*
X360253Y318351D01*
X360117Y318433D01*
X359994Y318515D01*
X359898Y318583D01*
X359843Y318638D01*
X359802Y318665D01*
X359789Y318679D01*
X359597Y318884D01*
X359433Y319116D01*
X359283Y319349D01*
X359160Y319608D01*
X359050Y319868D01*
X358955Y320142D01*
X358886Y320401D01*
X358832Y320661D01*
X358791Y320894D01*
X358750Y321126D01*
X358722Y321331D01*
X358709Y321509D01*
X358695Y321659D01*
Y321768D01*
Y321837D01*
Y321864D01*
Y329629D01*
X360882D01*
X361046Y329068D01*
X361279Y329205D01*
X361497Y329328D01*
X361716Y329437D01*
X361935Y329533D01*
X362154Y329601D01*
X362359Y329670D01*
X362550Y329724D01*
X362728Y329765D01*
X362905Y329793D01*
X363056Y329820D01*
X363192Y329834D01*
X363302Y329847D01*
X363398Y329861D01*
X363521D01*
X363821Y329847D01*
D02*
G37*
G36*
X328648Y331994D02*
X328744Y331748D01*
X328853Y331529D01*
X328990Y331351D01*
X329099Y331214D01*
X329209Y331132D01*
X329277Y331064D01*
X329291Y331050D01*
X329305D01*
X329428Y330982D01*
X329564Y330927D01*
X329879Y330832D01*
X330220Y330763D01*
X330549Y330709D01*
X330713Y330695D01*
X330863Y330681D01*
X331000Y330667D01*
X331123D01*
X331218Y330654D01*
X331355D01*
Y329123D01*
X328908D01*
Y322520D01*
X331355D01*
Y320866D01*
X324096D01*
Y322520D01*
X326488D01*
Y332294D01*
X328594D01*
X328648Y331994D01*
D02*
G37*
G36*
X381647Y320866D02*
X379323D01*
Y329629D01*
X381647D01*
Y320866D01*
D02*
G37*
G36*
X383752Y329642D02*
X383998Y329601D01*
X384231Y329547D01*
X384436Y329492D01*
X384613Y329437D01*
X384736Y329382D01*
X384791Y329355D01*
X384832Y329342D01*
X384846Y329328D01*
X384859D01*
X384996Y329259D01*
X385133Y329177D01*
X385420Y328986D01*
X385707Y328767D01*
X385994Y328562D01*
X386240Y328357D01*
X386336Y328262D01*
X386431Y328193D01*
X386500Y328125D01*
X386568Y328070D01*
X386596Y328043D01*
X386609Y328029D01*
Y329629D01*
X388933D01*
Y320866D01*
X386609D01*
Y326977D01*
X386213Y327113D01*
X385816Y327209D01*
X385434Y327277D01*
X385092Y327318D01*
X384928Y327346D01*
X384791Y327359D01*
X384654D01*
X384545Y327373D01*
X384067D01*
X383821Y327359D01*
X383602Y327332D01*
X383424Y327318D01*
X383274Y327291D01*
X383164Y327264D01*
X383110Y327250D01*
X383014D01*
Y329642D01*
X383123D01*
X383219Y329656D01*
X383506D01*
X383752Y329642D01*
D02*
G37*
G36*
X312586Y332486D02*
X312969Y332445D01*
X313338Y332363D01*
X313666Y332281D01*
X313980Y332171D01*
X314254Y332048D01*
X314500Y331911D01*
X314732Y331788D01*
X314924Y331652D01*
X315101Y331515D01*
X315238Y331392D01*
X315361Y331283D01*
X315443Y331201D01*
X315511Y331132D01*
X315552Y331078D01*
X315566Y331064D01*
X315757Y330777D01*
X315922Y330463D01*
X316072Y330121D01*
X316195Y329765D01*
X316304Y329382D01*
X316386Y329013D01*
X316468Y328644D01*
X316523Y328275D01*
X316564Y327934D01*
X316605Y327606D01*
X316632Y327318D01*
X316646Y327059D01*
Y326854D01*
X316660Y326758D01*
Y326690D01*
Y326635D01*
Y326594D01*
Y326567D01*
Y326553D01*
X316646Y325992D01*
X316619Y325459D01*
X316564Y324981D01*
X316496Y324530D01*
X316414Y324120D01*
X316318Y323750D01*
X316222Y323422D01*
X316113Y323122D01*
X316017Y322862D01*
X315922Y322643D01*
X315826Y322452D01*
X315744Y322302D01*
X315675Y322179D01*
X315621Y322096D01*
X315594Y322042D01*
X315580Y322028D01*
X315361Y321782D01*
X315115Y321563D01*
X314855Y321386D01*
X314582Y321222D01*
X314309Y321085D01*
X314021Y320975D01*
X313734Y320880D01*
X313461Y320812D01*
X313201Y320757D01*
X312955Y320702D01*
X312737Y320675D01*
X312545Y320661D01*
X312381Y320647D01*
X312258Y320634D01*
X312162D01*
X311739Y320647D01*
X311342Y320688D01*
X310973Y320757D01*
X310645Y320852D01*
X310331Y320962D01*
X310057Y321071D01*
X309797Y321208D01*
X309579Y321331D01*
X309374Y321468D01*
X309210Y321591D01*
X309073Y321700D01*
X308950Y321809D01*
X308854Y321905D01*
X308800Y321973D01*
X308758Y322014D01*
X308745Y322028D01*
X308554Y322315D01*
X308389Y322630D01*
X308239Y322971D01*
X308116Y323327D01*
X308020Y323696D01*
X307925Y324079D01*
X307856Y324448D01*
X307802Y324817D01*
X307761Y325172D01*
X307720Y325500D01*
X307692Y325801D01*
X307679Y326061D01*
X307665Y326266D01*
Y326361D01*
Y326430D01*
Y326484D01*
Y326525D01*
Y326553D01*
Y326567D01*
X307679Y327127D01*
X307706Y327646D01*
X307761Y328125D01*
X307829Y328576D01*
X307925Y328986D01*
X308007Y329355D01*
X308116Y329683D01*
X308212Y329984D01*
X308307Y330244D01*
X308417Y330463D01*
X308499Y330654D01*
X308581Y330804D01*
X308663Y330927D01*
X308717Y331009D01*
X308745Y331064D01*
X308758Y331078D01*
X308977Y331324D01*
X309210Y331542D01*
X309469Y331734D01*
X309743Y331898D01*
X310030Y332034D01*
X310303Y332158D01*
X310590Y332253D01*
X310864Y332322D01*
X311123Y332376D01*
X311369Y332431D01*
X311588Y332458D01*
X311780Y332472D01*
X311944Y332486D01*
X312067Y332499D01*
X312162D01*
X312586Y332486D01*
D02*
G37*
G36*
X371340Y329123D02*
X371668Y329287D01*
X371955Y329424D01*
X372187Y329533D01*
X372392Y329615D01*
X372543Y329670D01*
X372652Y329711D01*
X372720Y329738D01*
X372748D01*
X373117Y329806D01*
X373295Y329834D01*
X373459Y329847D01*
X373595Y329861D01*
X373800D01*
X374101Y329847D01*
X374375Y329806D01*
X374648Y329738D01*
X374908Y329656D01*
X375140Y329560D01*
X375359Y329451D01*
X375564Y329328D01*
X375755Y329205D01*
X375919Y329082D01*
X376070Y328959D01*
X376193Y328849D01*
X376302Y328754D01*
X376384Y328672D01*
X376439Y328603D01*
X376480Y328562D01*
X376493Y328549D01*
X376685Y328303D01*
X376849Y328029D01*
X376999Y327756D01*
X377122Y327469D01*
X377218Y327195D01*
X377313Y326908D01*
X377382Y326635D01*
X377437Y326375D01*
X377478Y326129D01*
X377519Y325897D01*
X377546Y325692D01*
X377560Y325514D01*
Y325377D01*
X377573Y325268D01*
Y325200D01*
Y325172D01*
X377560Y324789D01*
X377532Y324420D01*
X377491Y324079D01*
X377437Y323764D01*
X377368Y323463D01*
X377286Y323190D01*
X377218Y322944D01*
X377122Y322725D01*
X377040Y322520D01*
X376972Y322342D01*
X376890Y322192D01*
X376821Y322069D01*
X376767Y321973D01*
X376726Y321905D01*
X376698Y321864D01*
X376685Y321850D01*
X376507Y321632D01*
X376316Y321454D01*
X376124Y321290D01*
X375933Y321153D01*
X375728Y321030D01*
X375523Y320935D01*
X375331Y320852D01*
X375140Y320784D01*
X374962Y320729D01*
X374798Y320702D01*
X374648Y320675D01*
X374525Y320647D01*
X374429D01*
X374347Y320634D01*
X374279D01*
X374033Y320647D01*
X373814Y320675D01*
X373595Y320702D01*
X373418Y320757D01*
X373267Y320798D01*
X373144Y320825D01*
X373076Y320852D01*
X373048Y320866D01*
X372939Y320921D01*
X372816Y320975D01*
X372543Y321140D01*
X372256Y321331D01*
X371982Y321522D01*
X371723Y321714D01*
X371627Y321796D01*
X371531Y321864D01*
X371449Y321932D01*
X371394Y321973D01*
X371353Y322001D01*
X371340Y322014D01*
Y320866D01*
X369016D01*
Y332773D01*
X371340D01*
Y329123D01*
D02*
G37*
G36*
X321390Y320866D02*
X318806D01*
Y323614D01*
X321390D01*
Y320866D01*
D02*
G37*
G36*
X418652Y332472D02*
X419103Y332417D01*
X419526Y332335D01*
X419923Y332240D01*
X420292Y332117D01*
X420620Y331980D01*
X420934Y331830D01*
X421208Y331693D01*
X421468Y331542D01*
X421686Y331392D01*
X421864Y331255D01*
X422028Y331132D01*
X422137Y331037D01*
X422233Y330955D01*
X422288Y330900D01*
X422301Y330886D01*
X422575Y330572D01*
X422807Y330244D01*
X423012Y329888D01*
X423190Y329533D01*
X423340Y329164D01*
X423463Y328808D01*
X423559Y328453D01*
X423641Y328111D01*
X423709Y327797D01*
X423750Y327496D01*
X423792Y327223D01*
X423805Y326990D01*
X423819Y326799D01*
X423833Y326662D01*
Y326607D01*
Y326567D01*
Y326553D01*
Y326539D01*
X423819Y326033D01*
X423764Y325555D01*
X423696Y325104D01*
X423600Y324680D01*
X423477Y324297D01*
X423354Y323942D01*
X423217Y323614D01*
X423081Y323327D01*
X422944Y323053D01*
X422807Y322835D01*
X422671Y322643D01*
X422561Y322479D01*
X422466Y322356D01*
X422397Y322260D01*
X422342Y322206D01*
X422329Y322192D01*
X422028Y321919D01*
X421714Y321686D01*
X421386Y321481D01*
X421044Y321304D01*
X420702Y321153D01*
X420360Y321030D01*
X420019Y320921D01*
X419691Y320839D01*
X419390Y320770D01*
X419103Y320729D01*
X418857Y320688D01*
X418638Y320675D01*
X418447Y320661D01*
X418310Y320647D01*
X418200D01*
X417900Y320661D01*
X417613Y320675D01*
X417339Y320702D01*
X417080Y320729D01*
X416875Y320757D01*
X416779Y320770D01*
X416711Y320784D01*
X416642Y320798D01*
X416601Y320812D01*
X416560D01*
X416396Y320852D01*
X416218Y320894D01*
X415849Y321003D01*
X415466Y321140D01*
X415097Y321276D01*
X414933Y321345D01*
X414769Y321399D01*
X414633Y321468D01*
X414510Y321509D01*
X414414Y321563D01*
X414346Y321591D01*
X414291Y321604D01*
X414277Y321618D01*
Y323928D01*
X414510D01*
X414715Y323750D01*
X414906Y323600D01*
X415084Y323463D01*
X415262Y323327D01*
X415576Y323122D01*
X415836Y322958D01*
X415959Y322889D01*
X416054Y322835D01*
X416150Y322794D01*
X416218Y322753D01*
X416273Y322725D01*
X416314Y322712D01*
X416341Y322698D01*
X416355D01*
X416642Y322602D01*
X416916Y322534D01*
X417175Y322493D01*
X417408Y322465D01*
X417599Y322438D01*
X417749Y322425D01*
X417886D01*
X418159Y322438D01*
X418419Y322465D01*
X418679Y322520D01*
X418898Y322589D01*
X419116Y322671D01*
X419321Y322766D01*
X419499Y322862D01*
X419663Y322958D01*
X419814Y323053D01*
X419937Y323149D01*
X420046Y323245D01*
X420142Y323327D01*
X420210Y323395D01*
X420265Y323450D01*
X420292Y323477D01*
X420306Y323491D01*
X420456Y323696D01*
X420593Y323928D01*
X420716Y324174D01*
X420825Y324420D01*
X420907Y324666D01*
X420975Y324926D01*
X421085Y325418D01*
X421126Y325651D01*
X421153Y325856D01*
X421167Y326047D01*
X421181Y326211D01*
X421194Y326348D01*
Y326457D01*
Y326512D01*
Y326539D01*
X421181Y326895D01*
X421153Y327236D01*
X421112Y327564D01*
X421058Y327852D01*
X420989Y328125D01*
X420921Y328385D01*
X420839Y328603D01*
X420757Y328808D01*
X420675Y329000D01*
X420593Y329150D01*
X420524Y329287D01*
X420456Y329396D01*
X420401Y329492D01*
X420360Y329547D01*
X420333Y329588D01*
X420319Y329601D01*
X420142Y329793D01*
X419964Y329957D01*
X419773Y330107D01*
X419567Y330230D01*
X419362Y330339D01*
X419171Y330435D01*
X418966Y330504D01*
X418788Y330558D01*
X418611Y330599D01*
X418447Y330640D01*
X418296Y330667D01*
X418159Y330681D01*
X418064Y330695D01*
X417913D01*
X417613Y330681D01*
X417312Y330627D01*
X417011Y330558D01*
X416711Y330463D01*
X416423Y330353D01*
X416136Y330216D01*
X415877Y330080D01*
X415631Y329943D01*
X415398Y329806D01*
X415179Y329670D01*
X415002Y329547D01*
X414838Y329424D01*
X414715Y329328D01*
X414619Y329259D01*
X414551Y329205D01*
X414537Y329191D01*
X414277D01*
Y331529D01*
X414633Y331693D01*
X414988Y331843D01*
X415344Y331966D01*
X415685Y332089D01*
X416027Y332171D01*
X416355Y332253D01*
X416656Y332322D01*
X416943Y332363D01*
X417216Y332404D01*
X417449Y332431D01*
X417667Y332458D01*
X417845Y332472D01*
X417982Y332486D01*
X418187D01*
X418652Y332472D01*
D02*
G37*
G36*
X339106Y320866D02*
X336905D01*
X333324Y329629D01*
X335716D01*
X337917Y323559D01*
X340159Y329629D01*
X342674D01*
X339106Y320866D01*
D02*
G37*
G36*
X409889Y329861D02*
X410450Y329806D01*
X410983Y329738D01*
X411229Y329697D01*
X411475Y329670D01*
X411694Y329629D01*
X411899Y329588D01*
X412076Y329547D01*
X412227Y329519D01*
X412350Y329492D01*
X412445Y329465D01*
X412514Y329451D01*
X412528D01*
Y327606D01*
X412445D01*
X412145Y327729D01*
X411858Y327838D01*
X411584Y327920D01*
X411338Y328002D01*
X411120Y328070D01*
X410901Y328125D01*
X410709Y328166D01*
X410545Y328207D01*
X410395Y328234D01*
X410258Y328248D01*
X410149Y328275D01*
X410053D01*
X409985Y328289D01*
X409657D01*
X409438Y328275D01*
X409233Y328262D01*
X409042Y328234D01*
X408878Y328207D01*
X408713Y328166D01*
X408577Y328139D01*
X408454Y328111D01*
X408358Y328070D01*
X408262Y328043D01*
X408180Y328002D01*
X408126Y327975D01*
X408071Y327961D01*
X408044Y327934D01*
X408016Y327920D01*
X407825Y327769D01*
X407688Y327578D01*
X407579Y327387D01*
X407511Y327182D01*
X407470Y327004D01*
X407456Y326867D01*
X407442Y326813D01*
Y326772D01*
Y326744D01*
Y326731D01*
Y326484D01*
X407770Y326471D01*
X408085Y326444D01*
X408386Y326416D01*
X408673Y326389D01*
X409206Y326334D01*
X409698Y326266D01*
X410135Y326184D01*
X410518Y326102D01*
X410860Y326033D01*
X411147Y325951D01*
X411407Y325869D01*
X411612Y325787D01*
X411789Y325719D01*
X411926Y325664D01*
X412035Y325610D01*
X412104Y325569D01*
X412145Y325555D01*
X412158Y325541D01*
X412350Y325391D01*
X412528Y325227D01*
X412678Y325049D01*
X412801Y324871D01*
X412910Y324680D01*
X412992Y324489D01*
X413074Y324311D01*
X413129Y324133D01*
X413170Y323956D01*
X413211Y323792D01*
X413225Y323655D01*
X413252Y323532D01*
Y323422D01*
X413266Y323354D01*
Y323299D01*
Y323286D01*
X413252Y323067D01*
X413238Y322862D01*
X413143Y322493D01*
X413033Y322165D01*
X412965Y322014D01*
X412883Y321891D01*
X412815Y321768D01*
X412746Y321673D01*
X412691Y321577D01*
X412637Y321509D01*
X412582Y321454D01*
X412541Y321413D01*
X412528Y321386D01*
X412514Y321372D01*
X412363Y321249D01*
X412213Y321126D01*
X412063Y321030D01*
X411899Y320948D01*
X411584Y320812D01*
X411270Y320729D01*
X411010Y320675D01*
X410887Y320661D01*
X410791Y320647D01*
X410709Y320634D01*
X410600D01*
X410327Y320647D01*
X410067Y320675D01*
X409834Y320702D01*
X409629Y320757D01*
X409452Y320798D01*
X409315Y320825D01*
X409274Y320839D01*
X409233Y320852D01*
X409219Y320866D01*
X409206D01*
X409069Y320921D01*
X408932Y320975D01*
X408645Y321140D01*
X408358Y321317D01*
X408085Y321522D01*
X407839Y321700D01*
X407743Y321782D01*
X407647Y321850D01*
X407565Y321919D01*
X407511Y321960D01*
X407483Y321987D01*
X407470Y322001D01*
Y320866D01*
X405159D01*
Y326881D01*
X405173Y327168D01*
X405200Y327428D01*
X405255Y327674D01*
X405310Y327892D01*
X405392Y328098D01*
X405474Y328289D01*
X405556Y328453D01*
X405652Y328603D01*
X405747Y328726D01*
X405829Y328849D01*
X405911Y328931D01*
X405993Y329013D01*
X406048Y329068D01*
X406103Y329123D01*
X406130Y329136D01*
X406144Y329150D01*
X406335Y329273D01*
X406567Y329396D01*
X406800Y329492D01*
X407059Y329574D01*
X407593Y329697D01*
X408112Y329779D01*
X408358Y329820D01*
X408591Y329834D01*
X408796Y329847D01*
X408987Y329861D01*
X409137Y329875D01*
X409342D01*
X409889Y329861D01*
D02*
G37*
G36*
X397641Y329642D02*
X397887Y329601D01*
X398119Y329547D01*
X398324Y329492D01*
X398502Y329437D01*
X398625Y329382D01*
X398680Y329355D01*
X398721Y329342D01*
X398734Y329328D01*
X398748D01*
X398885Y329259D01*
X399022Y329177D01*
X399309Y328986D01*
X399596Y328767D01*
X399883Y328562D01*
X400129Y328357D01*
X400224Y328262D01*
X400320Y328193D01*
X400388Y328125D01*
X400457Y328070D01*
X400484Y328043D01*
X400498Y328029D01*
Y329629D01*
X402822D01*
Y320866D01*
X400498D01*
Y326977D01*
X400101Y327113D01*
X399705Y327209D01*
X399322Y327277D01*
X398980Y327318D01*
X398816Y327346D01*
X398680Y327359D01*
X398543D01*
X398434Y327373D01*
X397955D01*
X397709Y327359D01*
X397491Y327332D01*
X397313Y327318D01*
X397162Y327291D01*
X397053Y327264D01*
X396998Y327250D01*
X396903D01*
Y329642D01*
X397012D01*
X397108Y329656D01*
X397395D01*
X397641Y329642D01*
D02*
G37*
G36*
X395372Y329629D02*
X396534D01*
Y328084D01*
X395385D01*
Y323518D01*
X395372Y323245D01*
X395358Y322999D01*
X395317Y322766D01*
X395276Y322548D01*
X395221Y322356D01*
X395153Y322179D01*
X395085Y322028D01*
X395016Y321878D01*
X394962Y321755D01*
X394893Y321645D01*
X394825Y321563D01*
X394770Y321481D01*
X394729Y321427D01*
X394688Y321386D01*
X394674Y321372D01*
X394661Y321358D01*
X394510Y321249D01*
X394360Y321140D01*
X393991Y320975D01*
X393622Y320866D01*
X393239Y320784D01*
X393061Y320757D01*
X392897Y320743D01*
X392747Y320716D01*
X392624D01*
X392515Y320702D01*
X392364D01*
X391968Y320716D01*
X391599Y320729D01*
X391257Y320770D01*
X390970Y320812D01*
X390833Y320825D01*
X390724Y320839D01*
X390615Y320866D01*
X390532Y320880D01*
X390464Y320894D01*
X390409D01*
X390382Y320907D01*
X390368D01*
Y322506D01*
X390437D01*
X390642Y322411D01*
X390833Y322342D01*
X391011Y322302D01*
X391175Y322274D01*
X391312Y322247D01*
X391407Y322233D01*
X391503D01*
X391804Y322247D01*
X392050Y322302D01*
X392255Y322370D01*
X392419Y322452D01*
X392542Y322520D01*
X392638Y322589D01*
X392692Y322643D01*
X392706Y322657D01*
X392774Y322753D01*
X392829Y322862D01*
X392870Y322985D01*
X392911Y323122D01*
X392979Y323422D01*
X393020Y323723D01*
X393048Y324010D01*
Y324133D01*
X393061Y324256D01*
Y324338D01*
Y324420D01*
Y324461D01*
Y324475D01*
Y328084D01*
X390368D01*
Y329629D01*
X393061D01*
Y332089D01*
X395372D01*
Y329629D01*
D02*
G37*
G36*
X352735Y329888D02*
X353104Y329847D01*
X353459Y329779D01*
X353774Y329711D01*
X354088Y329601D01*
X354362Y329506D01*
X354608Y329382D01*
X354840Y329273D01*
X355045Y329150D01*
X355223Y329027D01*
X355373Y328931D01*
X355496Y328836D01*
X355606Y328754D01*
X355674Y328685D01*
X355715Y328644D01*
X355729Y328631D01*
X355947Y328385D01*
X356125Y328125D01*
X356289Y327852D01*
X356426Y327564D01*
X356549Y327277D01*
X356645Y326990D01*
X356727Y326703D01*
X356795Y326444D01*
X356850Y326184D01*
X356877Y325951D01*
X356904Y325733D01*
X356932Y325541D01*
Y325391D01*
X356945Y325282D01*
Y325213D01*
Y325186D01*
X356932Y324789D01*
X356891Y324407D01*
X356822Y324051D01*
X356740Y323723D01*
X356645Y323422D01*
X356535Y323135D01*
X356426Y322889D01*
X356303Y322657D01*
X356180Y322465D01*
X356070Y322288D01*
X355961Y322137D01*
X355865Y322014D01*
X355783Y321919D01*
X355715Y321850D01*
X355674Y321809D01*
X355660Y321796D01*
X355400Y321591D01*
X355127Y321413D01*
X354826Y321263D01*
X354526Y321126D01*
X354211Y321017D01*
X353897Y320921D01*
X353582Y320839D01*
X353282Y320784D01*
X353008Y320729D01*
X352735Y320702D01*
X352502Y320675D01*
X352297Y320647D01*
X352120D01*
X351997Y320634D01*
X351887D01*
X351587Y320647D01*
X351300Y320661D01*
X350712Y320743D01*
X350151Y320852D01*
X349878Y320907D01*
X349632Y320975D01*
X349399Y321030D01*
X349194Y321098D01*
X349017Y321153D01*
X348853Y321194D01*
X348730Y321249D01*
X348634Y321276D01*
X348566Y321290D01*
X348552Y321304D01*
Y323313D01*
X348634D01*
X348907Y323122D01*
X349194Y322958D01*
X349468Y322821D01*
X349728Y322698D01*
X349987Y322589D01*
X350233Y322506D01*
X350466Y322438D01*
X350684Y322383D01*
X350889Y322342D01*
X351067Y322302D01*
X351218Y322274D01*
X351354Y322260D01*
X351464D01*
X351546Y322247D01*
X351614D01*
X351874Y322260D01*
X352120Y322274D01*
X352339Y322315D01*
X352557Y322356D01*
X352749Y322425D01*
X352940Y322493D01*
X353282Y322657D01*
X353555Y322862D01*
X353801Y323081D01*
X354006Y323327D01*
X354170Y323573D01*
X354307Y323819D01*
X354403Y324051D01*
X354485Y324270D01*
X354539Y324475D01*
X354567Y324639D01*
X354594Y324776D01*
X354608Y324858D01*
Y324871D01*
Y324885D01*
X348388D01*
Y325692D01*
X348401Y326074D01*
X348429Y326430D01*
X348483Y326772D01*
X348552Y327086D01*
X348648Y327373D01*
X348757Y327646D01*
X348866Y327892D01*
X349003Y328125D01*
X349153Y328344D01*
X349304Y328535D01*
X349468Y328713D01*
X349632Y328877D01*
X349810Y329027D01*
X350001Y329150D01*
X350179Y329273D01*
X350356Y329382D01*
X350725Y329547D01*
X351095Y329683D01*
X351423Y329779D01*
X351723Y329834D01*
X351860Y329861D01*
X351969Y329875D01*
X352079Y329888D01*
X352174D01*
X352243Y329902D01*
X352339D01*
X352735Y329888D01*
D02*
G37*
G36*
X304152Y301181D02*
X301828D01*
Y313088D01*
X304152D01*
Y301181D01*
D02*
G37*
G36*
X329086Y310162D02*
X329469Y310121D01*
X329824Y310067D01*
X330152Y309985D01*
X330467Y309889D01*
X330753Y309793D01*
X331013Y309684D01*
X331246Y309575D01*
X331464Y309452D01*
X331642Y309342D01*
X331806Y309246D01*
X331943Y309151D01*
X332038Y309069D01*
X332120Y309014D01*
X332161Y308973D01*
X332175Y308959D01*
X332408Y308727D01*
X332599Y308467D01*
X332777Y308194D01*
X332927Y307907D01*
X333050Y307620D01*
X333159Y307333D01*
X333242Y307059D01*
X333310Y306786D01*
X333365Y306526D01*
X333405Y306280D01*
X333433Y306075D01*
X333447Y305884D01*
X333460Y305733D01*
X333474Y305610D01*
Y305542D01*
Y305515D01*
X333460Y305118D01*
X333419Y304735D01*
X333351Y304380D01*
X333269Y304052D01*
X333173Y303751D01*
X333064Y303478D01*
X332954Y303218D01*
X332831Y302999D01*
X332708Y302794D01*
X332599Y302616D01*
X332490Y302466D01*
X332394Y302343D01*
X332312Y302247D01*
X332244Y302179D01*
X332203Y302138D01*
X332189Y302124D01*
X331943Y301919D01*
X331669Y301742D01*
X331382Y301577D01*
X331082Y301441D01*
X330795Y301331D01*
X330494Y301236D01*
X330193Y301154D01*
X329920Y301099D01*
X329646Y301044D01*
X329400Y301017D01*
X329182Y300990D01*
X328990Y300962D01*
X328826D01*
X328703Y300949D01*
X328607D01*
X328375Y300962D01*
X328156Y300976D01*
X327691Y301058D01*
X327240Y301154D01*
X327035Y301222D01*
X326830Y301277D01*
X326639Y301345D01*
X326475Y301400D01*
X326324Y301454D01*
X326188Y301509D01*
X326092Y301550D01*
X326010Y301577D01*
X325955Y301591D01*
X325942Y301605D01*
Y303751D01*
X326065D01*
X326297Y303546D01*
X326530Y303368D01*
X326748Y303218D01*
X326981Y303081D01*
X327186Y302972D01*
X327391Y302890D01*
X327596Y302808D01*
X327773Y302753D01*
X327951Y302698D01*
X328101Y302658D01*
X328238Y302644D01*
X328348Y302616D01*
X328443D01*
X328512Y302603D01*
X328566D01*
X328785Y302616D01*
X328990Y302630D01*
X329359Y302726D01*
X329674Y302835D01*
X329810Y302904D01*
X329933Y302986D01*
X330043Y303054D01*
X330138Y303122D01*
X330207Y303177D01*
X330275Y303232D01*
X330330Y303286D01*
X330371Y303327D01*
X330384Y303341D01*
X330398Y303355D01*
X330507Y303505D01*
X330603Y303669D01*
X330767Y304011D01*
X330877Y304366D01*
X330959Y304722D01*
X330986Y304886D01*
X331000Y305036D01*
X331027Y305159D01*
Y305282D01*
X331041Y305378D01*
Y305446D01*
Y305501D01*
Y305515D01*
X331027Y305774D01*
X331013Y306020D01*
X330986Y306253D01*
X330945Y306458D01*
X330890Y306663D01*
X330836Y306840D01*
X330781Y307004D01*
X330713Y307155D01*
X330658Y307292D01*
X330603Y307401D01*
X330549Y307497D01*
X330494Y307579D01*
X330453Y307647D01*
X330426Y307688D01*
X330398Y307715D01*
Y307729D01*
X330275Y307866D01*
X330138Y307989D01*
X329988Y308098D01*
X329851Y308194D01*
X329701Y308262D01*
X329551Y308330D01*
X329263Y308426D01*
X329004Y308481D01*
X328894Y308494D01*
X328799Y308508D01*
X328717Y308522D01*
X328607D01*
X328375Y308508D01*
X328143Y308467D01*
X327910Y308413D01*
X327678Y308344D01*
X327254Y308153D01*
X327049Y308057D01*
X326858Y307948D01*
X326694Y307838D01*
X326543Y307743D01*
X326407Y307647D01*
X326283Y307551D01*
X326188Y307483D01*
X326119Y307428D01*
X326078Y307387D01*
X326065Y307374D01*
X325942D01*
Y309506D01*
X326188Y309629D01*
X326434Y309725D01*
X326694Y309821D01*
X326926Y309889D01*
X327391Y310012D01*
X327609Y310053D01*
X327815Y310094D01*
X328006Y310121D01*
X328170Y310135D01*
X328320Y310162D01*
X328443D01*
X328553Y310176D01*
X328689D01*
X329086Y310162D01*
D02*
G37*
G36*
X337561D02*
X337944Y310121D01*
X338299Y310067D01*
X338627Y309985D01*
X338942Y309889D01*
X339229Y309793D01*
X339489Y309684D01*
X339721Y309575D01*
X339940Y309452D01*
X340118Y309342D01*
X340282Y309246D01*
X340418Y309151D01*
X340514Y309069D01*
X340596Y309014D01*
X340637Y308973D01*
X340651Y308959D01*
X340883Y308727D01*
X341074Y308467D01*
X341252Y308194D01*
X341403Y307907D01*
X341526Y307620D01*
X341635Y307333D01*
X341717Y307059D01*
X341785Y306786D01*
X341840Y306526D01*
X341881Y306280D01*
X341908Y306075D01*
X341922Y305884D01*
X341936Y305733D01*
X341949Y305610D01*
Y305542D01*
Y305515D01*
X341936Y305118D01*
X341895Y304735D01*
X341826Y304380D01*
X341744Y304052D01*
X341649Y303751D01*
X341539Y303478D01*
X341430Y303218D01*
X341307Y302999D01*
X341184Y302794D01*
X341074Y302616D01*
X340965Y302466D01*
X340869Y302343D01*
X340787Y302247D01*
X340719Y302179D01*
X340678Y302138D01*
X340664Y302124D01*
X340418Y301919D01*
X340145Y301742D01*
X339858Y301577D01*
X339557Y301441D01*
X339270Y301331D01*
X338969Y301236D01*
X338668Y301154D01*
X338395Y301099D01*
X338122Y301044D01*
X337876Y301017D01*
X337657Y300990D01*
X337466Y300962D01*
X337301D01*
X337178Y300949D01*
X337083D01*
X336850Y300962D01*
X336632Y300976D01*
X336167Y301058D01*
X335716Y301154D01*
X335511Y301222D01*
X335306Y301277D01*
X335114Y301345D01*
X334950Y301400D01*
X334800Y301454D01*
X334663Y301509D01*
X334567Y301550D01*
X334485Y301577D01*
X334431Y301591D01*
X334417Y301605D01*
Y303751D01*
X334540D01*
X334772Y303546D01*
X335005Y303368D01*
X335224Y303218D01*
X335456Y303081D01*
X335661Y302972D01*
X335866Y302890D01*
X336071Y302808D01*
X336249Y302753D01*
X336427Y302698D01*
X336577Y302658D01*
X336714Y302644D01*
X336823Y302616D01*
X336919D01*
X336987Y302603D01*
X337042D01*
X337260Y302616D01*
X337466Y302630D01*
X337835Y302726D01*
X338149Y302835D01*
X338286Y302904D01*
X338409Y302986D01*
X338518Y303054D01*
X338614Y303122D01*
X338682Y303177D01*
X338751Y303232D01*
X338805Y303286D01*
X338846Y303327D01*
X338860Y303341D01*
X338874Y303355D01*
X338983Y303505D01*
X339079Y303669D01*
X339243Y304011D01*
X339352Y304366D01*
X339434Y304722D01*
X339461Y304886D01*
X339475Y305036D01*
X339502Y305159D01*
Y305282D01*
X339516Y305378D01*
Y305446D01*
Y305501D01*
Y305515D01*
X339502Y305774D01*
X339489Y306020D01*
X339461Y306253D01*
X339420Y306458D01*
X339366Y306663D01*
X339311Y306840D01*
X339256Y307004D01*
X339188Y307155D01*
X339133Y307292D01*
X339079Y307401D01*
X339024Y307497D01*
X338969Y307579D01*
X338928Y307647D01*
X338901Y307688D01*
X338874Y307715D01*
Y307729D01*
X338751Y307866D01*
X338614Y307989D01*
X338463Y308098D01*
X338327Y308194D01*
X338176Y308262D01*
X338026Y308330D01*
X337739Y308426D01*
X337479Y308481D01*
X337370Y308494D01*
X337274Y308508D01*
X337192Y308522D01*
X337083D01*
X336850Y308508D01*
X336618Y308467D01*
X336386Y308413D01*
X336153Y308344D01*
X335729Y308153D01*
X335524Y308057D01*
X335333Y307948D01*
X335169Y307838D01*
X335019Y307743D01*
X334882Y307647D01*
X334759Y307551D01*
X334663Y307483D01*
X334595Y307428D01*
X334554Y307387D01*
X334540Y307374D01*
X334417D01*
Y309506D01*
X334663Y309629D01*
X334909Y309725D01*
X335169Y309821D01*
X335401Y309889D01*
X335866Y310012D01*
X336085Y310053D01*
X336290Y310094D01*
X336481Y310121D01*
X336645Y310135D01*
X336796Y310162D01*
X336919D01*
X337028Y310176D01*
X337165D01*
X337561Y310162D01*
D02*
G37*
G36*
X217156Y310203D02*
X217525Y310162D01*
X217880Y310094D01*
X218195Y310026D01*
X218509Y309916D01*
X218783Y309821D01*
X219029Y309698D01*
X219261Y309588D01*
X219466Y309465D01*
X219644Y309342D01*
X219794Y309246D01*
X219917Y309151D01*
X220026Y309069D01*
X220095Y309000D01*
X220136Y308959D01*
X220150Y308946D01*
X220368Y308700D01*
X220546Y308440D01*
X220710Y308167D01*
X220847Y307879D01*
X220970Y307592D01*
X221065Y307305D01*
X221147Y307018D01*
X221216Y306758D01*
X221270Y306499D01*
X221298Y306266D01*
X221325Y306048D01*
X221353Y305856D01*
Y305706D01*
X221366Y305596D01*
Y305528D01*
Y305501D01*
X221353Y305104D01*
X221311Y304722D01*
X221243Y304366D01*
X221161Y304038D01*
X221065Y303737D01*
X220956Y303450D01*
X220847Y303204D01*
X220724Y302972D01*
X220601Y302781D01*
X220491Y302603D01*
X220382Y302452D01*
X220286Y302329D01*
X220204Y302234D01*
X220136Y302165D01*
X220095Y302124D01*
X220081Y302111D01*
X219822Y301906D01*
X219548Y301728D01*
X219247Y301577D01*
X218947Y301441D01*
X218632Y301331D01*
X218318Y301236D01*
X218003Y301154D01*
X217703Y301099D01*
X217429Y301044D01*
X217156Y301017D01*
X216923Y300990D01*
X216718Y300962D01*
X216541D01*
X216418Y300949D01*
X216308D01*
X216007Y300962D01*
X215721Y300976D01*
X215133Y301058D01*
X214572Y301167D01*
X214299Y301222D01*
X214053Y301290D01*
X213820Y301345D01*
X213615Y301413D01*
X213438Y301468D01*
X213274Y301509D01*
X213151Y301564D01*
X213055Y301591D01*
X212986Y301605D01*
X212973Y301619D01*
Y303628D01*
X213055D01*
X213328Y303437D01*
X213615Y303273D01*
X213889Y303136D01*
X214148Y303013D01*
X214408Y302904D01*
X214654Y302821D01*
X214887Y302753D01*
X215105Y302698D01*
X215310Y302658D01*
X215488Y302616D01*
X215638Y302589D01*
X215775Y302575D01*
X215884D01*
X215967Y302562D01*
X216035D01*
X216295Y302575D01*
X216541Y302589D01*
X216759Y302630D01*
X216978Y302671D01*
X217169Y302740D01*
X217361Y302808D01*
X217703Y302972D01*
X217976Y303177D01*
X218222Y303396D01*
X218427Y303642D01*
X218591Y303888D01*
X218728Y304134D01*
X218824Y304366D01*
X218906Y304585D01*
X218960Y304790D01*
X218988Y304954D01*
X219015Y305091D01*
X219029Y305173D01*
Y305186D01*
Y305200D01*
X212809D01*
Y306007D01*
X212822Y306389D01*
X212850Y306745D01*
X212905Y307086D01*
X212973Y307401D01*
X213069Y307688D01*
X213178Y307961D01*
X213287Y308208D01*
X213424Y308440D01*
X213574Y308659D01*
X213725Y308850D01*
X213889Y309028D01*
X214053Y309192D01*
X214230Y309342D01*
X214422Y309465D01*
X214599Y309588D01*
X214777Y309698D01*
X215146Y309861D01*
X215515Y309998D01*
X215844Y310094D01*
X216144Y310149D01*
X216281Y310176D01*
X216390Y310190D01*
X216500Y310203D01*
X216595D01*
X216664Y310217D01*
X216759D01*
X217156Y310203D01*
D02*
G37*
G36*
X281760Y310162D02*
X282143Y310121D01*
X282498Y310067D01*
X282826Y309985D01*
X283141Y309889D01*
X283428Y309793D01*
X283688Y309684D01*
X283920Y309575D01*
X284139Y309452D01*
X284316Y309342D01*
X284481Y309246D01*
X284617Y309151D01*
X284713Y309069D01*
X284795Y309014D01*
X284836Y308973D01*
X284850Y308959D01*
X285082Y308727D01*
X285273Y308467D01*
X285451Y308194D01*
X285601Y307907D01*
X285724Y307620D01*
X285834Y307333D01*
X285916Y307059D01*
X285984Y306786D01*
X286039Y306526D01*
X286080Y306280D01*
X286107Y306075D01*
X286121Y305884D01*
X286135Y305733D01*
X286148Y305610D01*
Y305542D01*
Y305515D01*
X286135Y305118D01*
X286094Y304735D01*
X286025Y304380D01*
X285943Y304052D01*
X285848Y303751D01*
X285738Y303478D01*
X285629Y303218D01*
X285506Y302999D01*
X285383Y302794D01*
X285273Y302616D01*
X285164Y302466D01*
X285068Y302343D01*
X284986Y302247D01*
X284918Y302179D01*
X284877Y302138D01*
X284863Y302124D01*
X284617Y301919D01*
X284344Y301742D01*
X284057Y301577D01*
X283756Y301441D01*
X283469Y301331D01*
X283168Y301236D01*
X282868Y301154D01*
X282594Y301099D01*
X282321Y301044D01*
X282075Y301017D01*
X281856Y300990D01*
X281665Y300962D01*
X281501D01*
X281378Y300949D01*
X281282D01*
X281049Y300962D01*
X280831Y300976D01*
X280366Y301058D01*
X279915Y301154D01*
X279710Y301222D01*
X279505Y301277D01*
X279313Y301345D01*
X279149Y301400D01*
X278999Y301454D01*
X278862Y301509D01*
X278766Y301550D01*
X278684Y301577D01*
X278630Y301591D01*
X278616Y301605D01*
Y303751D01*
X278739D01*
X278972Y303546D01*
X279204Y303368D01*
X279423Y303218D01*
X279655Y303081D01*
X279860Y302972D01*
X280065Y302890D01*
X280270Y302808D01*
X280448Y302753D01*
X280626Y302698D01*
X280776Y302658D01*
X280913Y302644D01*
X281022Y302616D01*
X281118D01*
X281186Y302603D01*
X281241D01*
X281459Y302616D01*
X281665Y302630D01*
X282034Y302726D01*
X282348Y302835D01*
X282485Y302904D01*
X282608Y302986D01*
X282717Y303054D01*
X282813Y303122D01*
X282881Y303177D01*
X282949Y303232D01*
X283004Y303286D01*
X283045Y303327D01*
X283059Y303341D01*
X283073Y303355D01*
X283182Y303505D01*
X283278Y303669D01*
X283442Y304011D01*
X283551Y304366D01*
X283633Y304722D01*
X283660Y304886D01*
X283674Y305036D01*
X283701Y305159D01*
Y305282D01*
X283715Y305378D01*
Y305446D01*
Y305501D01*
Y305515D01*
X283701Y305774D01*
X283688Y306020D01*
X283660Y306253D01*
X283619Y306458D01*
X283565Y306663D01*
X283510Y306840D01*
X283455Y307004D01*
X283387Y307155D01*
X283332Y307292D01*
X283278Y307401D01*
X283223Y307497D01*
X283168Y307579D01*
X283127Y307647D01*
X283100Y307688D01*
X283073Y307715D01*
Y307729D01*
X282949Y307866D01*
X282813Y307989D01*
X282663Y308098D01*
X282526Y308194D01*
X282375Y308262D01*
X282225Y308330D01*
X281938Y308426D01*
X281678Y308481D01*
X281569Y308494D01*
X281473Y308508D01*
X281391Y308522D01*
X281282D01*
X281049Y308508D01*
X280817Y308467D01*
X280585Y308413D01*
X280352Y308344D01*
X279928Y308153D01*
X279723Y308057D01*
X279532Y307948D01*
X279368Y307838D01*
X279218Y307743D01*
X279081Y307647D01*
X278958Y307551D01*
X278862Y307483D01*
X278794Y307428D01*
X278753Y307387D01*
X278739Y307374D01*
X278616D01*
Y309506D01*
X278862Y309629D01*
X279108Y309725D01*
X279368Y309821D01*
X279600Y309889D01*
X280065Y310012D01*
X280284Y310053D01*
X280489Y310094D01*
X280680Y310121D01*
X280844Y310135D01*
X280995Y310162D01*
X281118D01*
X281227Y310176D01*
X281364D01*
X281760Y310162D01*
D02*
G37*
G36*
X246164Y311037D02*
X243662D01*
Y313088D01*
X246164D01*
Y311037D01*
D02*
G37*
G36*
X274310Y310176D02*
X274871Y310121D01*
X275404Y310053D01*
X275650Y310012D01*
X275896Y309985D01*
X276115Y309944D01*
X276320Y309903D01*
X276497Y309861D01*
X276648Y309834D01*
X276771Y309807D01*
X276866Y309780D01*
X276935Y309766D01*
X276948D01*
Y307920D01*
X276866D01*
X276566Y308043D01*
X276279Y308153D01*
X276005Y308235D01*
X275759Y308317D01*
X275540Y308385D01*
X275322Y308440D01*
X275130Y308481D01*
X274966Y308522D01*
X274816Y308549D01*
X274679Y308563D01*
X274570Y308590D01*
X274474D01*
X274406Y308604D01*
X274078D01*
X273859Y308590D01*
X273654Y308577D01*
X273463Y308549D01*
X273299Y308522D01*
X273134Y308481D01*
X272998Y308453D01*
X272875Y308426D01*
X272779Y308385D01*
X272683Y308358D01*
X272601Y308317D01*
X272547Y308290D01*
X272492Y308276D01*
X272465Y308248D01*
X272437Y308235D01*
X272246Y308085D01*
X272109Y307893D01*
X272000Y307702D01*
X271932Y307497D01*
X271890Y307319D01*
X271877Y307182D01*
X271863Y307128D01*
Y307086D01*
Y307059D01*
Y307046D01*
Y306800D01*
X272191Y306786D01*
X272506Y306758D01*
X272806Y306731D01*
X273094Y306704D01*
X273627Y306649D01*
X274119Y306581D01*
X274556Y306499D01*
X274939Y306417D01*
X275281Y306348D01*
X275568Y306266D01*
X275828Y306184D01*
X276032Y306102D01*
X276210Y306034D01*
X276347Y305979D01*
X276456Y305925D01*
X276525Y305884D01*
X276566Y305870D01*
X276579Y305856D01*
X276771Y305706D01*
X276948Y305542D01*
X277099Y305364D01*
X277222Y305186D01*
X277331Y304995D01*
X277413Y304804D01*
X277495Y304626D01*
X277550Y304448D01*
X277591Y304271D01*
X277632Y304106D01*
X277646Y303970D01*
X277673Y303847D01*
Y303737D01*
X277687Y303669D01*
Y303614D01*
Y303601D01*
X277673Y303382D01*
X277659Y303177D01*
X277564Y302808D01*
X277454Y302480D01*
X277386Y302329D01*
X277304Y302206D01*
X277236Y302083D01*
X277167Y301988D01*
X277112Y301892D01*
X277058Y301824D01*
X277003Y301769D01*
X276962Y301728D01*
X276948Y301701D01*
X276935Y301687D01*
X276784Y301564D01*
X276634Y301441D01*
X276484Y301345D01*
X276320Y301263D01*
X276005Y301126D01*
X275691Y301044D01*
X275431Y300990D01*
X275308Y300976D01*
X275212Y300962D01*
X275130Y300949D01*
X275021D01*
X274747Y300962D01*
X274488Y300990D01*
X274255Y301017D01*
X274050Y301072D01*
X273873Y301113D01*
X273736Y301140D01*
X273695Y301154D01*
X273654Y301167D01*
X273640Y301181D01*
X273627D01*
X273490Y301236D01*
X273353Y301290D01*
X273066Y301454D01*
X272779Y301632D01*
X272506Y301837D01*
X272260Y302015D01*
X272164Y302097D01*
X272068Y302165D01*
X271986Y302234D01*
X271932Y302275D01*
X271904Y302302D01*
X271890Y302316D01*
Y301181D01*
X269580D01*
Y307196D01*
X269594Y307483D01*
X269621Y307743D01*
X269676Y307989D01*
X269731Y308208D01*
X269813Y308413D01*
X269895Y308604D01*
X269977Y308768D01*
X270072Y308918D01*
X270168Y309041D01*
X270250Y309164D01*
X270332Y309246D01*
X270414Y309328D01*
X270469Y309383D01*
X270524Y309438D01*
X270551Y309452D01*
X270565Y309465D01*
X270756Y309588D01*
X270988Y309711D01*
X271221Y309807D01*
X271480Y309889D01*
X272013Y310012D01*
X272533Y310094D01*
X272779Y310135D01*
X273011Y310149D01*
X273217Y310162D01*
X273408Y310176D01*
X273558Y310190D01*
X273763D01*
X274310Y310176D01*
D02*
G37*
G36*
X380608Y307182D02*
X378024D01*
Y309944D01*
X380608D01*
Y307182D01*
D02*
G37*
G36*
X228242Y310162D02*
X228529Y310121D01*
X228803Y310067D01*
X229049Y309985D01*
X229295Y309903D01*
X229514Y309793D01*
X229719Y309684D01*
X229896Y309575D01*
X230074Y309465D01*
X230211Y309356D01*
X230334Y309246D01*
X230443Y309164D01*
X230525Y309082D01*
X230580Y309028D01*
X230621Y308987D01*
X230634Y308973D01*
X230812Y308741D01*
X230976Y308494D01*
X231113Y308235D01*
X231236Y307975D01*
X231332Y307702D01*
X231414Y307442D01*
X231482Y307182D01*
X231537Y306936D01*
X231591Y306690D01*
X231619Y306485D01*
X231646Y306280D01*
X231660Y306116D01*
Y305979D01*
X231673Y305870D01*
Y305815D01*
Y305788D01*
X231660Y305378D01*
X231632Y304995D01*
X231578Y304640D01*
X231523Y304311D01*
X231441Y303997D01*
X231345Y303710D01*
X231236Y303437D01*
X231113Y303191D01*
X230976Y302972D01*
X230839Y302767D01*
X230689Y302575D01*
X230525Y302398D01*
X230375Y302247D01*
X230211Y302097D01*
X230033Y301974D01*
X229869Y301865D01*
X229527Y301673D01*
X229199Y301536D01*
X228898Y301441D01*
X228625Y301373D01*
X228393Y301331D01*
X228297Y301318D01*
X228215D01*
X228147Y301304D01*
X228064D01*
X227818Y301318D01*
X227586Y301359D01*
X227354Y301413D01*
X227121Y301482D01*
X226889Y301577D01*
X226670Y301673D01*
X226465Y301783D01*
X226274Y301892D01*
X226096Y302001D01*
X225932Y302111D01*
X225795Y302206D01*
X225672Y302302D01*
X225576Y302370D01*
X225495Y302425D01*
X225453Y302466D01*
X225440Y302480D01*
Y301988D01*
Y301742D01*
X225467Y301509D01*
X225495Y301304D01*
X225535Y301113D01*
X225590Y300935D01*
X225645Y300785D01*
X225700Y300648D01*
X225754Y300539D01*
X225809Y300429D01*
X225864Y300347D01*
X225918Y300279D01*
X225973Y300224D01*
X226041Y300156D01*
X226055Y300129D01*
X226069D01*
X226192Y300046D01*
X226328Y299964D01*
X226629Y299855D01*
X226957Y299773D01*
X227285Y299705D01*
X227572Y299677D01*
X227709Y299664D01*
X227818D01*
X227914Y299650D01*
X228037D01*
X228461Y299677D01*
X228912Y299732D01*
X229349Y299814D01*
X229760Y299923D01*
X229937Y299964D01*
X230115Y300019D01*
X230265Y300060D01*
X230402Y300101D01*
X230498Y300129D01*
X230580Y300156D01*
X230634Y300183D01*
X230771D01*
Y298283D01*
X230197Y298174D01*
X229650Y298092D01*
X229131Y298037D01*
X228885Y298010D01*
X228652Y297996D01*
X228447Y297982D01*
X228270Y297969D01*
X228105D01*
X227955Y297955D01*
X227695D01*
X227258Y297969D01*
X226848Y297996D01*
X226479Y298051D01*
X226137Y298119D01*
X225823Y298201D01*
X225535Y298283D01*
X225276Y298379D01*
X225043Y298474D01*
X224852Y298570D01*
X224674Y298666D01*
X224538Y298748D01*
X224415Y298830D01*
X224319Y298898D01*
X224264Y298953D01*
X224223Y298980D01*
X224209Y298994D01*
X224018Y299199D01*
X223854Y299431D01*
X223704Y299664D01*
X223581Y299923D01*
X223471Y300183D01*
X223376Y300457D01*
X223307Y300716D01*
X223253Y300976D01*
X223212Y301208D01*
X223171Y301441D01*
X223143Y301646D01*
X223130Y301824D01*
X223116Y301974D01*
Y302083D01*
Y302152D01*
Y302179D01*
Y309944D01*
X225303D01*
X225467Y309383D01*
X225700Y309520D01*
X225918Y309643D01*
X226137Y309752D01*
X226356Y309848D01*
X226574Y309916D01*
X226780Y309985D01*
X226971Y310039D01*
X227149Y310080D01*
X227326Y310108D01*
X227477Y310135D01*
X227613Y310149D01*
X227723Y310162D01*
X227818Y310176D01*
X227941D01*
X228242Y310162D01*
D02*
G37*
G36*
X423819Y301181D02*
X421495D01*
Y307592D01*
X421304Y307715D01*
X421112Y307811D01*
X420934Y307907D01*
X420757Y307975D01*
X420456Y308098D01*
X420183Y308180D01*
X420073Y308208D01*
X419964Y308221D01*
X419882Y308248D01*
X419814D01*
X419759Y308262D01*
X419677D01*
X419362Y308248D01*
X419089Y308194D01*
X418870Y308125D01*
X418679Y308043D01*
X418542Y307948D01*
X418447Y307879D01*
X418378Y307825D01*
X418365Y307811D01*
X418296Y307715D01*
X418228Y307592D01*
X418173Y307442D01*
X418132Y307278D01*
X418091Y307086D01*
X418050Y306895D01*
X418009Y306512D01*
X417982Y306321D01*
Y306143D01*
X417968Y305979D01*
X417954Y305829D01*
Y305719D01*
Y305624D01*
Y305569D01*
Y305542D01*
Y301181D01*
X415617D01*
Y306936D01*
X415631Y307237D01*
X415644Y307510D01*
X415685Y307770D01*
X415740Y308002D01*
X415795Y308235D01*
X415877Y308440D01*
X415959Y308631D01*
X416054Y308809D01*
X416150Y308973D01*
X416259Y309123D01*
X416492Y309383D01*
X416751Y309602D01*
X416998Y309766D01*
X417257Y309903D01*
X417517Y310012D01*
X417749Y310080D01*
X417954Y310121D01*
X418132Y310149D01*
X418269Y310176D01*
X418392D01*
X418652Y310162D01*
X418911Y310135D01*
X419130Y310080D01*
X419335Y310039D01*
X419513Y309985D01*
X419650Y309930D01*
X419732Y309903D01*
X419745Y309889D01*
X419759D01*
X419882Y309834D01*
X420019Y309752D01*
X420306Y309588D01*
X420593Y309397D01*
X420866Y309192D01*
X421112Y309014D01*
X421222Y308932D01*
X421317Y308864D01*
X421386Y308795D01*
X421440Y308754D01*
X421481Y308727D01*
X421495Y308713D01*
Y313088D01*
X423819D01*
Y301181D01*
D02*
G37*
G36*
X413115Y309944D02*
X414277D01*
Y308399D01*
X413129D01*
Y303833D01*
X413115Y303560D01*
X413102Y303314D01*
X413061Y303081D01*
X413020Y302863D01*
X412965Y302671D01*
X412897Y302493D01*
X412828Y302343D01*
X412760Y302193D01*
X412705Y302070D01*
X412637Y301960D01*
X412569Y301878D01*
X412514Y301796D01*
X412473Y301742D01*
X412432Y301701D01*
X412418Y301687D01*
X412404Y301673D01*
X412254Y301564D01*
X412104Y301454D01*
X411735Y301290D01*
X411366Y301181D01*
X410983Y301099D01*
X410805Y301072D01*
X410641Y301058D01*
X410491Y301031D01*
X410368D01*
X410258Y301017D01*
X410108D01*
X409711Y301031D01*
X409342Y301044D01*
X409001Y301085D01*
X408713Y301126D01*
X408577Y301140D01*
X408467Y301154D01*
X408358Y301181D01*
X408276Y301195D01*
X408208Y301208D01*
X408153D01*
X408126Y301222D01*
X408112D01*
Y302821D01*
X408180D01*
X408386Y302726D01*
X408577Y302658D01*
X408755Y302616D01*
X408919Y302589D01*
X409055Y302562D01*
X409151Y302548D01*
X409247D01*
X409547Y302562D01*
X409794Y302616D01*
X409999Y302685D01*
X410163Y302767D01*
X410286Y302835D01*
X410381Y302904D01*
X410436Y302958D01*
X410450Y302972D01*
X410518Y303068D01*
X410573Y303177D01*
X410614Y303300D01*
X410655Y303437D01*
X410723Y303737D01*
X410764Y304038D01*
X410791Y304325D01*
Y304448D01*
X410805Y304571D01*
Y304653D01*
Y304735D01*
Y304776D01*
Y304790D01*
Y308399D01*
X408112D01*
Y309944D01*
X410805D01*
Y312404D01*
X413115D01*
Y309944D01*
D02*
G37*
G36*
X346009Y301181D02*
X343685D01*
Y309944D01*
X346009D01*
Y301181D01*
D02*
G37*
G36*
X351382Y310162D02*
X351641Y310135D01*
X351860Y310080D01*
X352065Y310039D01*
X352243Y309985D01*
X352379Y309930D01*
X352462Y309903D01*
X352475Y309889D01*
X352489D01*
X352612Y309834D01*
X352749Y309752D01*
X353036Y309588D01*
X353323Y309397D01*
X353596Y309192D01*
X353842Y309014D01*
X353952Y308932D01*
X354047Y308864D01*
X354116Y308795D01*
X354170Y308754D01*
X354211Y308727D01*
X354225Y308713D01*
Y309944D01*
X356549D01*
Y301181D01*
X354225D01*
Y307592D01*
X354033Y307715D01*
X353842Y307811D01*
X353664Y307907D01*
X353487Y307975D01*
X353186Y308098D01*
X352913Y308180D01*
X352803Y308208D01*
X352694Y308221D01*
X352612Y308248D01*
X352543D01*
X352489Y308262D01*
X352407D01*
X352092Y308248D01*
X351819Y308194D01*
X351600Y308125D01*
X351409Y308043D01*
X351272Y307948D01*
X351177Y307879D01*
X351108Y307825D01*
X351095Y307811D01*
X351026Y307715D01*
X350958Y307592D01*
X350903Y307442D01*
X350862Y307278D01*
X350821Y307086D01*
X350780Y306895D01*
X350739Y306512D01*
X350712Y306321D01*
Y306143D01*
X350698Y305979D01*
X350684Y305829D01*
Y305719D01*
Y305624D01*
Y305569D01*
Y305542D01*
Y301181D01*
X348347D01*
Y306936D01*
X348360Y307237D01*
X348374Y307510D01*
X348415Y307770D01*
X348470Y308002D01*
X348524Y308235D01*
X348607Y308440D01*
X348689Y308631D01*
X348784Y308809D01*
X348880Y308973D01*
X348989Y309123D01*
X349222Y309383D01*
X349481Y309602D01*
X349728Y309766D01*
X349987Y309903D01*
X350247Y310012D01*
X350479Y310080D01*
X350684Y310121D01*
X350862Y310149D01*
X350999Y310176D01*
X351122D01*
X351382Y310162D01*
D02*
G37*
G36*
X309346Y301181D02*
X306763D01*
Y303929D01*
X309346D01*
Y301181D01*
D02*
G37*
G36*
X314267D02*
X311944D01*
Y313088D01*
X314267D01*
Y301181D01*
D02*
G37*
G36*
X380608D02*
X378024D01*
Y303929D01*
X380608D01*
Y301181D01*
D02*
G37*
G36*
X259793Y309944D02*
X260954D01*
Y308399D01*
X259806D01*
Y303833D01*
X259793Y303560D01*
X259779Y303314D01*
X259738Y303081D01*
X259697Y302863D01*
X259642Y302671D01*
X259574Y302493D01*
X259506Y302343D01*
X259437Y302193D01*
X259383Y302070D01*
X259314Y301960D01*
X259246Y301878D01*
X259191Y301796D01*
X259150Y301742D01*
X259109Y301701D01*
X259095Y301687D01*
X259082Y301673D01*
X258931Y301564D01*
X258781Y301454D01*
X258412Y301290D01*
X258043Y301181D01*
X257660Y301099D01*
X257482Y301072D01*
X257318Y301058D01*
X257168Y301031D01*
X257045D01*
X256936Y301017D01*
X256785D01*
X256389Y301031D01*
X256020Y301044D01*
X255678Y301085D01*
X255391Y301126D01*
X255254Y301140D01*
X255145Y301154D01*
X255035Y301181D01*
X254953Y301195D01*
X254885Y301208D01*
X254830D01*
X254803Y301222D01*
X254789D01*
Y302821D01*
X254858D01*
X255063Y302726D01*
X255254Y302658D01*
X255432Y302616D01*
X255596Y302589D01*
X255733Y302562D01*
X255828Y302548D01*
X255924D01*
X256225Y302562D01*
X256471Y302616D01*
X256676Y302685D01*
X256840Y302767D01*
X256963Y302835D01*
X257059Y302904D01*
X257113Y302958D01*
X257127Y302972D01*
X257195Y303068D01*
X257250Y303177D01*
X257291Y303300D01*
X257332Y303437D01*
X257400Y303737D01*
X257441Y304038D01*
X257469Y304325D01*
Y304448D01*
X257482Y304571D01*
Y304653D01*
Y304735D01*
Y304776D01*
Y304790D01*
Y308399D01*
X254789D01*
Y309944D01*
X257482D01*
Y312404D01*
X259793D01*
Y309944D01*
D02*
G37*
G36*
X406513D02*
X407675D01*
Y308399D01*
X406526D01*
Y303833D01*
X406513Y303560D01*
X406499Y303314D01*
X406458Y303081D01*
X406417Y302863D01*
X406362Y302671D01*
X406294Y302493D01*
X406226Y302343D01*
X406157Y302193D01*
X406103Y302070D01*
X406034Y301960D01*
X405966Y301878D01*
X405911Y301796D01*
X405870Y301742D01*
X405829Y301701D01*
X405816Y301687D01*
X405802Y301673D01*
X405652Y301564D01*
X405501Y301454D01*
X405132Y301290D01*
X404763Y301181D01*
X404380Y301099D01*
X404202Y301072D01*
X404038Y301058D01*
X403888Y301031D01*
X403765D01*
X403656Y301017D01*
X403505D01*
X403109Y301031D01*
X402740Y301044D01*
X402398Y301085D01*
X402111Y301126D01*
X401974Y301140D01*
X401865Y301154D01*
X401756Y301181D01*
X401674Y301195D01*
X401605Y301208D01*
X401550D01*
X401523Y301222D01*
X401510D01*
Y302821D01*
X401578D01*
X401783Y302726D01*
X401974Y302658D01*
X402152Y302616D01*
X402316Y302589D01*
X402453Y302562D01*
X402548Y302548D01*
X402644D01*
X402945Y302562D01*
X403191Y302616D01*
X403396Y302685D01*
X403560Y302767D01*
X403683Y302835D01*
X403779Y302904D01*
X403833Y302958D01*
X403847Y302972D01*
X403915Y303068D01*
X403970Y303177D01*
X404011Y303300D01*
X404052Y303437D01*
X404120Y303737D01*
X404161Y304038D01*
X404189Y304325D01*
Y304448D01*
X404202Y304571D01*
Y304653D01*
Y304735D01*
Y304776D01*
Y304790D01*
Y308399D01*
X401510D01*
Y309944D01*
X404202D01*
Y312404D01*
X406513D01*
Y309944D01*
D02*
G37*
G36*
X346105Y311037D02*
X343603D01*
Y313088D01*
X346105D01*
Y311037D01*
D02*
G37*
G36*
X299518D02*
X297016D01*
Y313088D01*
X299518D01*
Y311037D01*
D02*
G37*
%LPC*%
G36*
X217046Y308768D02*
X216964D01*
X216650Y308741D01*
X216363Y308672D01*
X216131Y308563D01*
X215912Y308413D01*
X215734Y308248D01*
X215597Y308057D01*
X215474Y307852D01*
X215365Y307647D01*
X215297Y307428D01*
X215242Y307223D01*
X215187Y307032D01*
X215160Y306868D01*
X215146Y306717D01*
X215133Y306608D01*
Y306540D01*
Y306512D01*
X219029D01*
X218988Y306909D01*
X218906Y307251D01*
X218783Y307565D01*
X218646Y307811D01*
X218495Y308030D01*
X218318Y308221D01*
X218126Y308371D01*
X217949Y308481D01*
X217757Y308577D01*
X217580Y308645D01*
X217416Y308700D01*
X217265Y308727D01*
X217142Y308754D01*
X217046Y308768D01*
D02*
G37*
G36*
X407497Y325200D02*
X407470D01*
Y322999D01*
X407634Y322848D01*
X407798Y322725D01*
X407962Y322616D01*
X408112Y322520D01*
X408262Y322452D01*
X408413Y322383D01*
X408686Y322288D01*
X408919Y322219D01*
X409014Y322206D01*
X409096Y322192D01*
X409151Y322179D01*
X409247D01*
X409547Y322192D01*
X409794Y322219D01*
X410012Y322274D01*
X410190Y322329D01*
X410327Y322370D01*
X410422Y322425D01*
X410491Y322452D01*
X410504Y322465D01*
X410641Y322602D01*
X410737Y322753D01*
X410805Y322930D01*
X410846Y323108D01*
X410873Y323258D01*
X410901Y323395D01*
Y323450D01*
Y323491D01*
Y323504D01*
Y323518D01*
X410873Y323764D01*
X410805Y323983D01*
X410723Y324174D01*
X410614Y324325D01*
X410504Y324448D01*
X410422Y324543D01*
X410354Y324598D01*
X410327Y324612D01*
X410204Y324680D01*
X410040Y324748D01*
X409848Y324817D01*
X409643Y324871D01*
X409411Y324926D01*
X409165Y324967D01*
X408686Y325049D01*
X408440Y325090D01*
X408221Y325117D01*
X408016Y325145D01*
X407839Y325159D01*
X407688Y325186D01*
X407565D01*
X407497Y325200D01*
D02*
G37*
G36*
X352625Y328453D02*
X352543D01*
X352229Y328426D01*
X351942Y328357D01*
X351710Y328248D01*
X351491Y328098D01*
X351313Y327934D01*
X351177Y327742D01*
X351054Y327537D01*
X350944Y327332D01*
X350876Y327113D01*
X350821Y326908D01*
X350766Y326717D01*
X350739Y326553D01*
X350725Y326402D01*
X350712Y326293D01*
Y326225D01*
Y326197D01*
X354608D01*
X354567Y326594D01*
X354485Y326936D01*
X354362Y327250D01*
X354225Y327496D01*
X354075Y327715D01*
X353897Y327906D01*
X353706Y328057D01*
X353528Y328166D01*
X353336Y328262D01*
X353159Y328330D01*
X352995Y328385D01*
X352844Y328412D01*
X352721Y328439D01*
X352625Y328453D01*
D02*
G37*
G36*
X396028Y308385D02*
X395946D01*
X395768Y308371D01*
X395590Y308358D01*
X395426Y308317D01*
X395276Y308262D01*
X395003Y308125D01*
X394770Y307948D01*
X394579Y307743D01*
X394415Y307510D01*
X394278Y307251D01*
X394169Y307004D01*
X394087Y306745D01*
X394032Y306485D01*
X393977Y306253D01*
X393950Y306048D01*
X393936Y305870D01*
X393923Y305733D01*
Y305679D01*
Y305638D01*
Y305624D01*
Y305610D01*
Y305350D01*
X393950Y305091D01*
X393977Y304858D01*
X394032Y304640D01*
X394087Y304448D01*
X394141Y304257D01*
X394223Y304079D01*
X394305Y303915D01*
X394483Y303642D01*
X394688Y303396D01*
X394907Y303204D01*
X395126Y303054D01*
X395358Y302931D01*
X395577Y302835D01*
X395782Y302781D01*
X395959Y302726D01*
X396124Y302698D01*
X396233Y302685D01*
X396342D01*
X396629Y302698D01*
X396903Y302726D01*
X397135Y302767D01*
X397340Y302821D01*
X397518Y302863D01*
X397641Y302904D01*
X397723Y302931D01*
X397737Y302944D01*
X397750D01*
Y307770D01*
X397572Y307879D01*
X397395Y307975D01*
X397053Y308125D01*
X396752Y308235D01*
X396479Y308303D01*
X396260Y308358D01*
X396164Y308371D01*
X396082D01*
X396028Y308385D01*
D02*
G37*
G36*
X271918Y305515D02*
X271890D01*
Y303314D01*
X272055Y303163D01*
X272219Y303040D01*
X272383Y302931D01*
X272533Y302835D01*
X272683Y302767D01*
X272834Y302698D01*
X273107Y302603D01*
X273340Y302534D01*
X273435Y302521D01*
X273517Y302507D01*
X273572Y302493D01*
X273668D01*
X273968Y302507D01*
X274214Y302534D01*
X274433Y302589D01*
X274611Y302644D01*
X274747Y302685D01*
X274843Y302740D01*
X274912Y302767D01*
X274925Y302781D01*
X275062Y302917D01*
X275158Y303068D01*
X275226Y303245D01*
X275267Y303423D01*
X275294Y303573D01*
X275322Y303710D01*
Y303765D01*
Y303806D01*
Y303819D01*
Y303833D01*
X275294Y304079D01*
X275226Y304298D01*
X275144Y304489D01*
X275035Y304640D01*
X274925Y304763D01*
X274843Y304858D01*
X274775Y304913D01*
X274747Y304927D01*
X274624Y304995D01*
X274461Y305063D01*
X274269Y305132D01*
X274064Y305186D01*
X273832Y305241D01*
X273586Y305282D01*
X273107Y305364D01*
X272861Y305405D01*
X272642Y305433D01*
X272437Y305460D01*
X272260Y305473D01*
X272109Y305501D01*
X271986D01*
X271918Y305515D01*
D02*
G37*
G36*
X320583Y308590D02*
X320501D01*
X320310Y308577D01*
X320132Y308563D01*
X319968Y308508D01*
X319817Y308453D01*
X319544Y308303D01*
X319312Y308112D01*
X319107Y307879D01*
X318943Y307620D01*
X318806Y307346D01*
X318697Y307059D01*
X318615Y306772D01*
X318546Y306499D01*
X318505Y306239D01*
X318464Y306007D01*
X318450Y305815D01*
X318437Y305665D01*
Y305610D01*
Y305569D01*
Y305542D01*
Y305528D01*
Y305255D01*
X318464Y304995D01*
X318492Y304763D01*
X318519Y304530D01*
X318574Y304325D01*
X318628Y304134D01*
X318683Y303956D01*
X318751Y303792D01*
X318915Y303505D01*
X319079Y303259D01*
X319271Y303054D01*
X319448Y302904D01*
X319640Y302767D01*
X319831Y302685D01*
X319995Y302616D01*
X320159Y302562D01*
X320282Y302534D01*
X320392Y302521D01*
X320474D01*
X320665Y302534D01*
X320843Y302562D01*
X321007Y302589D01*
X321157Y302644D01*
X321444Y302794D01*
X321677Y302986D01*
X321882Y303218D01*
X322059Y303478D01*
X322196Y303751D01*
X322305Y304025D01*
X322388Y304311D01*
X322456Y304571D01*
X322497Y304831D01*
X322538Y305063D01*
X322551Y305255D01*
X322565Y305405D01*
Y305460D01*
Y305501D01*
Y305515D01*
Y305528D01*
Y305802D01*
X322538Y306061D01*
X322511Y306307D01*
X322469Y306540D01*
X322428Y306745D01*
X322374Y306950D01*
X322305Y307128D01*
X322237Y307305D01*
X322087Y307592D01*
X321909Y307838D01*
X321731Y308043D01*
X321526Y308208D01*
X321335Y308330D01*
X321157Y308426D01*
X320979Y308494D01*
X320829Y308549D01*
X320692Y308577D01*
X320583Y308590D01*
D02*
G37*
G36*
X362536Y328180D02*
X362427D01*
X362181Y328166D01*
X361935Y328125D01*
X361702Y328070D01*
X361484Y328015D01*
X361292Y327961D01*
X361142Y327906D01*
X361087Y327879D01*
X361046Y327865D01*
X361033Y327852D01*
X361019D01*
Y323436D01*
X361197Y323327D01*
X361361Y323231D01*
X361689Y323067D01*
X361989Y322958D01*
X362249Y322876D01*
X362468Y322835D01*
X362564Y322807D01*
X362632D01*
X362700Y322794D01*
X362782D01*
X362974Y322807D01*
X363151Y322821D01*
X363466Y322889D01*
X363739Y322985D01*
X363958Y323108D01*
X364122Y323217D01*
X364245Y323313D01*
X364313Y323381D01*
X364341Y323409D01*
X364423Y323532D01*
X364505Y323682D01*
X364628Y323983D01*
X364723Y324325D01*
X364778Y324653D01*
X364819Y324954D01*
X364833Y325077D01*
Y325200D01*
X364846Y325282D01*
Y325364D01*
Y325405D01*
Y325418D01*
X364833Y325664D01*
X364819Y325910D01*
X364792Y326129D01*
X364737Y326334D01*
X364683Y326525D01*
X364628Y326703D01*
X364464Y327018D01*
X364286Y327277D01*
X364081Y327510D01*
X363862Y327688D01*
X363630Y327838D01*
X363411Y327947D01*
X363192Y328029D01*
X362987Y328098D01*
X362810Y328139D01*
X362646Y328166D01*
X362536Y328180D01*
D02*
G37*
G36*
X312258Y330736D02*
X312162D01*
X311971Y330722D01*
X311793Y330695D01*
X311629Y330640D01*
X311479Y330586D01*
X311219Y330421D01*
X311000Y330244D01*
X310850Y330052D01*
X310727Y329888D01*
X310700Y329834D01*
X310672Y329779D01*
X310645Y329752D01*
Y329738D01*
X310563Y329533D01*
X310495Y329314D01*
X310426Y329082D01*
X310372Y328822D01*
X310290Y328303D01*
X310235Y327783D01*
X310221Y327537D01*
X310208Y327305D01*
X310194Y327100D01*
X310180Y326922D01*
Y326772D01*
Y326662D01*
Y326594D01*
Y326567D01*
Y326170D01*
X310194Y325815D01*
X310221Y325473D01*
X310248Y325159D01*
X310290Y324871D01*
X310331Y324612D01*
X310372Y324379D01*
X310413Y324161D01*
X310467Y323983D01*
X310508Y323819D01*
X310549Y323682D01*
X310577Y323573D01*
X310618Y323491D01*
X310631Y323436D01*
X310659Y323395D01*
Y323381D01*
X310754Y323204D01*
X310850Y323053D01*
X310973Y322917D01*
X311082Y322794D01*
X311219Y322698D01*
X311342Y322616D01*
X311465Y322548D01*
X311588Y322493D01*
X311807Y322425D01*
X311903Y322397D01*
X311998Y322383D01*
X312067D01*
X312121Y322370D01*
X312162D01*
X312354Y322383D01*
X312531Y322411D01*
X312682Y322465D01*
X312832Y322520D01*
X313092Y322684D01*
X313297Y322876D01*
X313461Y323053D01*
X313570Y323217D01*
X313611Y323272D01*
X313639Y323327D01*
X313666Y323354D01*
Y323368D01*
X313748Y323573D01*
X313816Y323792D01*
X313885Y324038D01*
X313939Y324284D01*
X314021Y324817D01*
X314076Y325336D01*
X314090Y325582D01*
X314104Y325815D01*
X314117Y326020D01*
Y326197D01*
X314131Y326348D01*
Y326457D01*
Y326525D01*
Y326553D01*
Y326949D01*
X314117Y327318D01*
X314090Y327660D01*
X314062Y327975D01*
X314021Y328262D01*
X313994Y328521D01*
X313953Y328754D01*
X313898Y328972D01*
X313857Y329150D01*
X313816Y329300D01*
X313789Y329437D01*
X313748Y329547D01*
X313721Y329629D01*
X313693Y329697D01*
X313680Y329724D01*
Y329738D01*
X313584Y329916D01*
X313475Y330066D01*
X313365Y330203D01*
X313242Y330312D01*
X313119Y330408D01*
X312996Y330490D01*
X312873Y330558D01*
X312750Y330613D01*
X312518Y330681D01*
X312422Y330709D01*
X312340Y330722D01*
X312258Y330736D01*
D02*
G37*
G36*
X226957Y308494D02*
X226848D01*
X226602Y308481D01*
X226356Y308440D01*
X226123Y308385D01*
X225905Y308330D01*
X225713Y308276D01*
X225563Y308221D01*
X225508Y308194D01*
X225467Y308180D01*
X225453Y308167D01*
X225440D01*
Y303751D01*
X225618Y303642D01*
X225782Y303546D01*
X226110Y303382D01*
X226410Y303273D01*
X226670Y303191D01*
X226889Y303150D01*
X226985Y303122D01*
X227053D01*
X227121Y303109D01*
X227203D01*
X227395Y303122D01*
X227572Y303136D01*
X227887Y303204D01*
X228160Y303300D01*
X228379Y303423D01*
X228543Y303532D01*
X228666Y303628D01*
X228734Y303696D01*
X228762Y303724D01*
X228844Y303847D01*
X228926Y303997D01*
X229049Y304298D01*
X229144Y304640D01*
X229199Y304968D01*
X229240Y305268D01*
X229254Y305392D01*
Y305515D01*
X229268Y305596D01*
Y305679D01*
Y305719D01*
Y305733D01*
X229254Y305979D01*
X229240Y306225D01*
X229213Y306444D01*
X229158Y306649D01*
X229103Y306840D01*
X229049Y307018D01*
X228885Y307333D01*
X228707Y307592D01*
X228502Y307825D01*
X228283Y308002D01*
X228051Y308153D01*
X227832Y308262D01*
X227613Y308344D01*
X227408Y308413D01*
X227231Y308453D01*
X227067Y308481D01*
X226957Y308494D01*
D02*
G37*
G36*
X237278D02*
X237169D01*
X236923Y308481D01*
X236677Y308440D01*
X236431Y308385D01*
X236212Y308330D01*
X236034Y308276D01*
X235884Y308221D01*
X235829Y308194D01*
X235788Y308180D01*
X235774Y308167D01*
X235761D01*
Y303423D01*
X235938Y303300D01*
X236116Y303191D01*
X236280Y303095D01*
X236444Y303027D01*
X236745Y302890D01*
X237005Y302808D01*
X237223Y302767D01*
X237305Y302753D01*
X237387Y302740D01*
X237442Y302726D01*
X237524D01*
X237716Y302740D01*
X237893Y302753D01*
X238221Y302835D01*
X238495Y302931D01*
X238713Y303054D01*
X238878Y303177D01*
X239001Y303286D01*
X239069Y303355D01*
X239096Y303368D01*
Y303382D01*
X239178Y303519D01*
X239260Y303669D01*
X239383Y303997D01*
X239465Y304366D01*
X239520Y304708D01*
X239547Y304886D01*
X239561Y305036D01*
X239575Y305173D01*
Y305296D01*
X239588Y305405D01*
Y305473D01*
Y305528D01*
Y305542D01*
X239575Y305815D01*
X239561Y306061D01*
X239534Y306294D01*
X239479Y306512D01*
X239424Y306717D01*
X239370Y306909D01*
X239288Y307086D01*
X239206Y307251D01*
X239028Y307538D01*
X238823Y307770D01*
X238604Y307975D01*
X238372Y308125D01*
X238153Y308248D01*
X237934Y308344D01*
X237729Y308399D01*
X237551Y308453D01*
X237387Y308481D01*
X237278Y308494D01*
D02*
G37*
G36*
X372857Y328180D02*
X372748D01*
X372502Y328166D01*
X372256Y328125D01*
X372010Y328070D01*
X371791Y328015D01*
X371613Y327961D01*
X371463Y327906D01*
X371408Y327879D01*
X371367Y327865D01*
X371353Y327852D01*
X371340D01*
Y323108D01*
X371517Y322985D01*
X371695Y322876D01*
X371859Y322780D01*
X372023Y322712D01*
X372324Y322575D01*
X372584Y322493D01*
X372802Y322452D01*
X372884Y322438D01*
X372967Y322425D01*
X373021Y322411D01*
X373103D01*
X373295Y322425D01*
X373472Y322438D01*
X373800Y322520D01*
X374074Y322616D01*
X374292Y322739D01*
X374457Y322862D01*
X374580Y322971D01*
X374648Y323040D01*
X374675Y323053D01*
Y323067D01*
X374757Y323204D01*
X374839Y323354D01*
X374962Y323682D01*
X375044Y324051D01*
X375099Y324393D01*
X375126Y324571D01*
X375140Y324721D01*
X375154Y324858D01*
Y324981D01*
X375167Y325090D01*
Y325159D01*
Y325213D01*
Y325227D01*
X375154Y325500D01*
X375140Y325746D01*
X375113Y325979D01*
X375058Y326197D01*
X375003Y326402D01*
X374949Y326594D01*
X374867Y326772D01*
X374785Y326936D01*
X374607Y327223D01*
X374402Y327455D01*
X374183Y327660D01*
X373951Y327811D01*
X373732Y327934D01*
X373513Y328029D01*
X373308Y328084D01*
X373130Y328139D01*
X372967Y328166D01*
X372857Y328180D01*
D02*
G37*
%LPD*%
M02*
